<svg width="214" height="51" viewBox="0 0 214 51" fill="none" xmlns="http://www.w3.org/2000/svg">
<path d="M0.558594 30.1584C1.10547 29.2795 1.60352 28.4397 2.05273 27.6389C2.50195 26.8186 2.92188 26.0276 3.3125 25.2659C3.72266 24.5042 4.11328 23.762 4.48438 23.0393C4.875 22.2971 5.27539 21.5549 5.68555 20.8127L9.69922 13.5178C9.44531 13.6155 9.01562 13.7815 8.41016 14.0159C7.82422 14.2502 7.18945 14.5042 6.50586 14.7776C5.8418 15.0315 5.20703 15.2756 4.60156 15.51C4.01562 15.7444 3.60547 15.9006 3.37109 15.9788C3.3125 16.0178 3.23438 16.0471 3.13672 16.0667C3.05859 16.0667 3 16.0667 2.96094 16.0667C2.64844 16.0667 2.36523 15.9397 2.11133 15.6858C1.87695 15.4124 1.75977 15.0608 1.75977 14.6311C1.75977 14.26 1.87695 13.8499 2.11133 13.4006C2.3457 12.9514 2.76562 12.4827 3.37109 11.9944C4.67969 11.1155 5.98828 10.3245 7.29688 9.62134C7.84375 9.32837 8.41992 9.04517 9.02539 8.77173C9.63086 8.47876 10.2266 8.22485 10.8125 8.01001C11.418 7.77563 12.0039 7.59009 12.5703 7.45337C13.1562 7.31665 13.6934 7.24829 14.1816 7.24829C14.748 7.24829 15.2363 7.40454 15.6465 7.71704C16.0762 8.01001 16.291 8.52759 16.291 9.26978C16.291 9.50415 16.2715 9.77759 16.2324 10.0901C16.1934 10.3831 16.0957 10.6956 15.9395 11.0276C15.6465 11.6331 15.2852 12.4143 14.8555 13.3713C14.4453 14.3088 13.9961 15.344 13.5078 16.4768C13.0195 17.5901 12.502 18.7717 11.9551 20.0217C11.4277 21.2717 10.8906 22.5022 10.3438 23.7131C9.81641 24.9241 9.29883 26.0862 8.79102 27.1995C8.2832 28.2932 7.82422 29.26 7.41406 30.0999C7.12109 30.6858 6.76953 31.2034 6.35938 31.6526C5.96875 32.1018 5.54883 32.4827 5.09961 32.7952C4.66992 33.0881 4.2207 33.3127 3.75195 33.469C3.2832 33.6252 2.84375 33.7034 2.43359 33.7034C1.80859 33.7034 1.27148 33.5374 0.822266 33.2053C0.392578 32.8928 0.177734 32.4143 0.177734 31.7698C0.177734 31.5549 0.197266 31.301 0.236328 31.0081C0.275391 30.7151 0.382812 30.4319 0.558594 30.1584ZM32.1992 26.1741C30.6367 28.4788 29.0938 30.7346 27.5703 32.9417C26.0664 35.1487 24.543 37.4045 23 39.7092C22.668 40.178 22.3164 40.5198 21.9453 40.7346C21.5742 40.9495 21.2227 41.0569 20.8906 41.0569C20.5977 41.0569 20.3535 40.9788 20.1582 40.8225C19.9629 40.6858 19.8652 40.4807 19.8652 40.2073C19.8652 40.012 19.9043 39.8459 19.9824 39.7092C20.8223 37.4045 21.6328 35.1487 22.4141 32.9417C23.2148 30.7346 24.0352 28.4788 24.875 26.1741C25.0312 25.7444 25.2656 25.3733 25.5781 25.0608C25.9102 24.7483 26.2715 24.4944 26.6621 24.2991C27.0723 24.0842 27.502 23.928 27.9512 23.8303C28.4199 23.7327 28.8789 23.6838 29.3281 23.6838C30.1484 23.6838 30.8613 23.8401 31.4668 24.1526C32.0918 24.4456 32.4043 24.8655 32.4043 25.4124C32.4043 25.6663 32.3359 25.9202 32.1992 26.1741ZM61.3496 28.1077C61.4277 28.0881 61.4961 28.0784 61.5547 28.0784C61.6133 28.0588 61.6719 28.0491 61.7305 28.0491C62.1406 28.0491 62.4824 28.2053 62.7559 28.5178C63.0293 28.8303 63.166 29.2112 63.166 29.6604C63.166 30.3049 62.9316 30.8811 62.4629 31.3889C62.0137 31.8967 61.4375 32.3264 60.7344 32.678C60.0312 33.01 59.2598 33.2639 58.4199 33.4397C57.5801 33.6155 56.7793 33.7034 56.0176 33.7034C55.3926 33.7034 54.7773 33.6643 54.1719 33.5862C53.5664 33.5276 52.9023 33.3909 52.1797 33.176C51.457 32.9612 50.6465 32.6487 49.748 32.2385C48.8496 31.8284 47.7852 31.2815 46.5547 30.5979C45.4023 31.3206 44.4941 31.887 43.8301 32.2971C43.1855 32.7073 42.6875 33.01 42.3359 33.2053C41.9844 33.4006 41.7402 33.5178 41.6035 33.5569C41.4668 33.5959 41.3496 33.6155 41.252 33.6155C41.0176 33.6155 40.7734 33.5374 40.5195 33.3811C40.2852 33.2444 40.0605 33.0588 39.8457 32.8245C39.6309 32.5901 39.4551 32.3264 39.3184 32.0334C39.1816 31.7209 39.1133 31.3987 39.1133 31.0667C39.1133 30.7932 39.1719 30.5198 39.2891 30.2463C39.4258 29.9729 39.6504 29.7288 39.9629 29.5139C41.252 28.8108 42.5605 28.0686 43.8887 27.2874C45.2168 26.4866 46.4961 25.6565 47.7266 24.7971C48.957 23.9182 50.1094 23.0198 51.1836 22.1018C52.2578 21.1838 53.1953 20.2659 53.9961 19.3479C54.7969 18.4104 55.4219 17.4827 55.8711 16.5647C56.3398 15.6272 56.5742 14.7092 56.5742 13.8108C56.5742 12.9319 56.3594 12.3167 55.9297 11.9651C55.5 11.594 54.9336 11.4084 54.2305 11.4084C53.6641 11.4084 53.0488 11.5061 52.3848 11.7014C51.7402 11.8967 51.0859 12.1506 50.4219 12.4631C49.7578 12.7561 49.0938 13.0784 48.4297 13.4299C47.7852 13.762 47.1797 14.0842 46.6133 14.3967C46.0664 14.6897 45.5781 14.9338 45.1484 15.1292C44.7188 15.3245 44.3867 15.4221 44.1523 15.4221C43.8398 15.4221 43.5469 15.3538 43.2734 15.217C43 15.0803 42.7656 14.9045 42.5703 14.6897C42.375 14.4553 42.2188 14.2014 42.1016 13.928C42.0039 13.6545 41.9551 13.3713 41.9551 13.0784C41.9551 12.5901 42.1797 12.092 42.6289 11.5842C43.0781 11.0569 43.6738 10.5491 44.416 10.0608C45.1582 9.57251 46.0078 9.11353 46.9648 8.68384C47.9219 8.25415 48.8984 7.87329 49.8945 7.54126C50.9102 7.20923 51.9062 6.95532 52.8828 6.77954C53.8789 6.58423 54.7871 6.48657 55.6074 6.48657C56.5645 6.48657 57.4629 6.61353 58.3027 6.86743C59.1621 7.10181 59.9043 7.49243 60.5293 8.03931C61.1543 8.56665 61.6426 9.26978 61.9941 10.1487C62.3652 11.0276 62.5508 12.1018 62.5508 13.3713C62.5508 14.4456 62.375 15.5198 62.0234 16.594C61.6914 17.6682 61.0762 18.7815 60.1777 19.9338C59.2793 21.0667 58.0586 22.2385 56.5156 23.4495C54.9922 24.6604 53.0391 25.9397 50.6562 27.2874C51.4961 27.6584 52.3945 27.9709 53.3516 28.2249C54.3086 28.4788 55.168 28.6057 55.9297 28.6057C56.4961 28.6057 57.0039 28.5959 57.4531 28.5764C57.9023 28.5569 58.332 28.5276 58.7422 28.4885C59.1523 28.4299 59.5625 28.3713 59.9727 28.3127C60.3828 28.2542 60.8418 28.1858 61.3496 28.1077ZM82.8828 24.7385C82.8828 23.6838 82.6289 22.717 82.1211 21.8381C81.6133 20.9592 80.9102 20.1194 80.0117 19.3186C78.918 20.178 77.9023 20.969 76.9648 21.6917C76.0273 22.3948 75.2168 23.0491 74.5332 23.6545C73.8496 24.26 73.3125 24.8167 72.9219 25.3245C72.5312 25.8323 72.3359 26.2913 72.3359 26.7014C72.3359 27.5413 72.7266 28.2151 73.5078 28.7229C74.3086 29.2307 75.373 29.4846 76.7012 29.4846C77.541 29.4846 78.332 29.3674 79.0742 29.1331C79.8359 28.8987 80.4902 28.5764 81.0371 28.1663C81.6035 27.7561 82.0527 27.2581 82.3848 26.6721C82.7168 26.0862 82.8828 25.4417 82.8828 24.7385ZM89.7969 6.42798C89.25 5.97876 88.6836 5.65649 88.0977 5.46118C87.5117 5.26587 86.9062 5.16821 86.2812 5.16821C85.3242 5.16821 84.3867 5.37329 83.4688 5.78345C82.5508 6.17407 81.7305 6.67212 81.0078 7.27759C80.3047 7.86353 79.7285 8.49829 79.2793 9.18188C78.8496 9.84595 78.6348 10.4514 78.6348 10.9983C78.6348 12.5999 79.5918 14.0549 81.5059 15.3635C82.6777 14.9338 83.791 14.387 84.8457 13.7229C85.9004 13.0588 86.8281 12.3655 87.6289 11.6428C88.4492 10.9006 89.0938 10.1682 89.5625 9.44556C90.0508 8.7229 90.2949 8.07837 90.2949 7.51196C90.2949 7.08228 90.1289 6.72095 89.7969 6.42798ZM89.0645 1.09595C90.3145 1.44751 91.3691 1.83813 92.2285 2.26782C93.1074 2.69751 93.8105 3.16626 94.3379 3.67407C94.8848 4.16235 95.2754 4.67993 95.5098 5.22681C95.7441 5.75415 95.8613 6.29126 95.8613 6.83813C95.8613 7.65845 95.6465 8.48853 95.2168 9.32837C94.7871 10.1487 94.2402 10.9592 93.5762 11.76C92.9121 12.5413 92.1699 13.2834 91.3496 13.9866C90.5293 14.6897 89.7188 15.3147 88.918 15.8616C88.1172 16.4084 87.375 16.8674 86.6914 17.2385C86.0078 17.5901 85.4805 17.8147 85.1094 17.9124C87.1016 19.553 88.0977 21.6721 88.0977 24.2698C88.0977 25.676 87.7852 26.9553 87.1602 28.1077C86.5547 29.26 85.7148 30.2561 84.6406 31.0959C83.5859 31.9358 82.3262 32.5803 80.8613 33.0295C79.3965 33.4983 77.8145 33.7327 76.1152 33.7327C74.8457 33.7327 73.6641 33.5667 72.5703 33.2346C71.4766 32.9221 70.5293 32.4729 69.7285 31.887C68.9277 31.301 68.293 30.6077 67.8242 29.8069C67.3555 28.9866 67.1211 28.0979 67.1211 27.1409C67.1211 25.4221 67.7949 23.8401 69.1426 22.3948C69.7871 21.7112 72.3066 19.9729 76.7012 17.1799C75.5879 16.1643 74.748 15.1096 74.1816 14.0159C73.6348 12.9221 73.3613 11.8186 73.3613 10.7053C73.3613 9.84595 73.5078 9.0061 73.8008 8.18579C74.1133 7.34595 74.5332 6.55493 75.0605 5.81274C75.6074 5.07056 76.252 4.38696 76.9941 3.76196C77.7559 3.11743 78.5859 2.57056 79.4844 2.12134C80.4023 1.65259 81.3691 1.29126 82.3848 1.03735C83.4199 0.763916 84.4844 0.627197 85.5781 0.627197C86.7695 0.627197 87.9316 0.783447 89.0645 1.09595ZM113.205 15.3928C113.205 14.0061 112.951 13.01 112.443 12.4045C111.936 11.7991 111.281 11.4963 110.48 11.4963C109.211 11.4963 107.98 11.8577 106.789 12.5803C105.617 13.2834 104.572 14.2307 103.654 15.4221C102.736 16.594 101.994 17.9417 101.428 19.4651C100.881 20.9885 100.607 22.551 100.607 24.1526C100.607 24.7776 100.656 25.3928 100.754 25.9983C100.852 26.6038 101.018 27.1506 101.252 27.6389C101.506 28.1272 101.838 28.5178 102.248 28.8108C102.678 29.1038 103.225 29.2502 103.889 29.2502C104.904 29.2502 105.842 29.0256 106.701 28.5764C107.561 28.1077 108.332 27.4924 109.016 26.7307C109.719 25.969 110.324 25.0999 110.832 24.1233C111.359 23.1467 111.799 22.1506 112.15 21.135C112.502 20.0999 112.766 19.0842 112.941 18.0881C113.117 17.092 113.205 16.1936 113.205 15.3928ZM118.713 15.3928C118.713 16.6624 118.537 17.9905 118.186 19.3772C117.854 20.7639 117.365 22.1409 116.721 23.5081C116.076 24.8752 115.295 26.1741 114.377 27.4045C113.459 28.635 112.414 29.719 111.242 30.6565C110.09 31.594 108.82 32.3459 107.434 32.9124C106.066 33.4592 104.611 33.7327 103.068 33.7327C101.857 33.7327 100.764 33.5081 99.7871 33.0588C98.8301 32.6096 98.0098 31.9846 97.3262 31.1838C96.6426 30.3635 96.1152 29.3772 95.7441 28.2249C95.373 27.0725 95.1875 25.7932 95.1875 24.387C95.1875 23.1565 95.3633 21.8577 95.7148 20.4905C96.0664 19.1233 96.5645 17.7854 97.209 16.4768C97.873 15.1487 98.6641 13.8792 99.582 12.6682C100.52 11.4573 101.564 10.4026 102.717 9.50415C103.869 8.58618 105.119 7.85376 106.467 7.30688C107.834 6.76001 109.27 6.48657 110.773 6.48657C111.945 6.48657 113.02 6.71118 113.996 7.1604C114.973 7.59009 115.812 8.19556 116.516 8.97681C117.219 9.75806 117.756 10.6956 118.127 11.7893C118.518 12.8831 118.713 14.0842 118.713 15.3928ZM151.76 14.426C152.307 13.9963 152.766 13.6741 153.137 13.4592C153.527 13.2249 153.859 13.0588 154.133 12.9612C154.406 12.844 154.65 12.7756 154.865 12.7561C155.1 12.7366 155.334 12.7268 155.568 12.7268C155.979 12.7268 156.271 12.8831 156.447 13.1956C156.623 13.4885 156.711 13.801 156.711 14.1331C156.711 14.4065 156.662 14.6604 156.564 14.8948L150.002 28.5764C150.939 27.8733 152.014 27.1897 153.225 26.5256C154.455 25.842 155.627 25.2366 156.74 24.7092C157.873 24.1624 158.84 23.7229 159.641 23.3909C160.461 23.0588 160.93 22.8928 161.047 22.8928C161.535 22.8928 161.965 23.0784 162.336 23.4495C162.707 23.8206 162.893 24.2893 162.893 24.8557C162.893 25.3635 162.697 25.9006 162.307 26.467C161.936 27.0334 161.271 27.5803 160.314 28.1077C158.947 28.8694 157.756 29.5237 156.74 30.0706C155.725 30.5979 154.826 31.0764 154.045 31.5061C153.264 31.9358 152.57 32.3264 151.965 32.678C151.359 33.0295 150.783 33.3909 150.236 33.762C149.709 34.1331 149.182 34.5237 148.654 34.9338C148.146 35.3635 147.59 35.8616 146.984 36.428C146.535 37.5999 146.086 38.7229 145.637 39.7971C145.207 40.8713 144.807 41.8186 144.436 42.6389C144.084 43.4592 143.791 44.1233 143.557 44.6311C143.322 45.1389 143.195 45.4124 143.176 45.4514C141.594 48.7327 139.855 50.3733 137.961 50.3733C137.18 50.3733 136.545 50.1096 136.057 49.5823C135.568 49.0745 135.324 48.3811 135.324 47.5022C135.324 46.6819 135.422 45.8616 135.617 45.0413C135.832 44.2405 136.193 43.3518 136.701 42.3752C137.229 41.3987 137.912 40.3049 138.752 39.094C139.611 37.9026 140.686 36.4963 141.975 34.8752L147.834 23.01C144.904 26.4866 142.248 29.1428 139.865 30.9788C137.482 32.8147 135.256 33.7327 133.186 33.7327C132.521 33.7327 131.955 33.5764 131.486 33.2639C131.018 32.9709 130.783 32.4729 130.783 31.7698C130.783 30.7932 131.018 29.6897 131.486 28.4592C131.76 27.7952 132.033 27.1897 132.307 26.6428C132.58 26.0764 132.863 25.5198 133.156 24.9729C133.449 24.4065 133.752 23.801 134.064 23.1565C134.396 22.512 134.748 21.7893 135.119 20.9885C135.51 20.1682 135.93 19.2307 136.379 18.176C136.848 17.1018 137.365 15.8518 137.932 14.426C138.322 13.6643 138.83 13.1174 139.455 12.7854C140.08 12.4338 140.686 12.2581 141.271 12.2581C141.877 12.2581 142.385 12.4045 142.795 12.6975C143.225 12.9709 143.439 13.342 143.439 13.8108C143.439 14.0452 143.4 14.2502 143.322 14.426L137.961 25.5881C137.688 26.1545 137.551 26.6038 137.551 26.9358C137.551 27.2288 137.668 27.3752 137.902 27.3752C138.117 27.3752 138.391 27.2678 138.723 27.053C139.055 26.8381 139.367 26.594 139.66 26.3206L151.76 14.426ZM172.414 15.7151C172.316 15.6956 172.229 15.6858 172.15 15.6858C172.072 15.6858 171.984 15.6858 171.887 15.6858C171.145 15.6858 170.451 15.8323 169.807 16.1252C169.162 16.4182 168.566 16.8088 168.02 17.2971C167.492 17.7659 167.014 18.303 166.584 18.9084C166.174 19.5139 165.803 20.1194 165.471 20.7249C165.139 21.3108 164.855 21.8772 164.621 22.4241C164.406 22.9709 164.24 23.4299 164.123 23.801C164.807 23.4495 165.51 23.0491 166.232 22.5999C166.975 22.1506 167.668 21.7209 168.312 21.3108C168.957 20.9006 169.514 20.5295 169.982 20.1975C170.471 19.8655 170.812 19.6409 171.008 19.5237C171.887 18.9768 172.492 18.469 172.824 18.0002C173.156 17.512 173.322 17.092 173.322 16.7405C173.322 16.4475 173.225 16.2131 173.029 16.0374C172.854 15.8616 172.648 15.7542 172.414 15.7151ZM173.469 11.6721C175.09 11.6721 176.301 12.0627 177.102 12.844C177.902 13.6252 178.303 14.7092 178.303 16.0959C178.303 16.9163 178.088 17.7756 177.658 18.6741C177.229 19.5725 176.486 20.4905 175.432 21.428C174.377 22.3459 172.961 23.2932 171.184 24.2698C169.426 25.2268 167.219 26.1936 164.562 27.1702C164.66 27.7366 164.963 28.1858 165.471 28.5178C165.979 28.8303 166.652 28.9866 167.492 28.9866C168.391 28.9866 169.348 28.8596 170.363 28.6057C171.398 28.3323 172.414 27.9905 173.41 27.5803C174.426 27.1702 175.412 26.7307 176.369 26.262C177.326 25.7737 178.186 25.3147 178.947 24.885C179.729 24.4553 180.373 24.0842 180.881 23.7717C181.408 23.4592 181.76 23.2639 181.936 23.1858C182.111 23.0686 182.268 23.0002 182.404 22.9807C182.561 22.9612 182.697 22.9514 182.814 22.9514C183.049 22.9514 183.244 23.01 183.4 23.1272C183.557 23.2249 183.684 23.3518 183.781 23.5081C183.898 23.6448 183.977 23.801 184.016 23.9768C184.055 24.1331 184.074 24.2698 184.074 24.387C184.074 24.5627 184.055 24.7776 184.016 25.0315C183.977 25.2659 183.83 25.5393 183.576 25.8518C183.479 25.9495 183.146 26.2131 182.58 26.6428C182.033 27.0725 181.32 27.5803 180.441 28.1663C179.562 28.7522 178.537 29.3772 177.365 30.0413C176.213 30.6858 174.982 31.2815 173.674 31.8284C172.385 32.3752 171.037 32.8245 169.631 33.176C168.225 33.5471 166.838 33.7327 165.471 33.7327C164.299 33.7327 163.254 33.5081 162.336 33.0588C161.438 32.6096 160.666 32.0042 160.021 31.2424C159.396 30.4807 158.918 29.6018 158.586 28.6057C158.254 27.6096 158.088 26.5647 158.088 25.4709C158.088 24.6311 158.254 23.7131 158.586 22.717C158.918 21.7014 159.396 20.6858 160.021 19.6702C160.646 18.6545 161.408 17.6682 162.307 16.7112C163.225 15.7346 164.25 14.8752 165.383 14.1331C166.516 13.3909 167.756 12.7952 169.104 12.3459C170.471 11.8967 171.926 11.6721 173.469 11.6721ZM185.627 15.217C186.018 14.3772 186.506 13.7522 187.092 13.342C187.678 12.9319 188.254 12.7268 188.82 12.7268C189.289 12.7268 189.709 12.9026 190.08 13.2542C190.451 13.5862 190.637 14.0842 190.637 14.7483C190.637 15.0022 190.607 15.2756 190.549 15.5686C190.49 15.8616 190.383 16.1741 190.227 16.5061C190.656 15.9592 191.271 15.4026 192.072 14.8362C192.873 14.2502 193.752 13.7327 194.709 13.2834C195.686 12.8147 196.682 12.4338 197.697 12.1409C198.732 11.8479 199.709 11.7014 200.627 11.7014C201.662 11.7014 202.521 11.9553 203.205 12.4631C203.908 12.9514 204.26 13.7913 204.26 14.9827C204.26 15.6858 204.152 16.4182 203.938 17.1799C203.723 17.9417 203.439 18.7034 203.088 19.4651C202.756 20.2268 202.375 20.9788 201.945 21.7209C201.535 22.4436 201.125 23.1272 200.715 23.7717C200.305 24.4163 199.924 25.012 199.572 25.5588C199.24 26.0862 198.977 26.5256 198.781 26.8772C198.527 27.1897 198.4 27.551 198.4 27.9612C198.4 28.1174 198.449 28.2542 198.547 28.3713C198.645 28.4885 198.801 28.5471 199.016 28.5471C199.152 28.5471 199.309 28.5374 199.484 28.5178C199.66 28.4788 199.875 28.3713 200.129 28.1956C201.184 27.8049 202.258 27.3167 203.352 26.7307C204.465 26.1448 205.529 25.5295 206.545 24.885C207.561 24.2209 208.488 23.5667 209.328 22.9221C210.188 22.2581 210.9 21.6624 211.467 21.135C211.623 20.9983 211.779 20.9006 211.936 20.842C212.092 20.7834 212.238 20.7542 212.375 20.7542C212.707 20.7542 212.961 20.8811 213.137 21.135C213.332 21.3889 213.43 21.7112 213.43 22.1018C213.43 22.7073 213.234 23.3811 212.844 24.1233C212.473 24.8655 211.877 25.5588 211.057 26.2034C209.943 27.0042 208.918 27.7366 207.98 28.4006C207.062 29.0647 206.115 29.6897 205.139 30.2756C204.182 30.842 203.146 31.3792 202.033 31.887C200.939 32.3752 199.65 32.8342 198.166 33.2639C197.658 33.4202 197.189 33.5374 196.76 33.6155C196.35 33.6936 195.969 33.7327 195.617 33.7327C194.582 33.7327 193.82 33.4495 193.332 32.8831C192.863 32.2971 192.629 31.4866 192.629 30.4514C192.629 30.3147 192.629 30.1877 192.629 30.0706C192.648 29.9338 192.668 29.7874 192.688 29.6311C192.727 29.0256 192.883 28.3616 193.156 27.6389C193.449 26.9163 193.791 26.1741 194.182 25.4124C194.592 24.6506 195.021 23.8987 195.471 23.1565C195.92 22.3948 196.33 21.6819 196.701 21.0178C197.092 20.3342 197.414 19.7288 197.668 19.2014C197.922 18.6741 198.049 18.2444 198.049 17.9124C198.049 17.6194 197.961 17.3752 197.785 17.1799C197.629 16.9651 197.385 16.8577 197.053 16.8577C195.803 16.8577 194.611 17.2288 193.479 17.9709C192.365 18.7131 191.32 19.6311 190.344 20.7249C189.367 21.7991 188.469 22.9417 187.648 24.1526C186.828 25.3635 186.105 26.4475 185.48 27.4045C185.09 28.0491 184.729 28.7424 184.396 29.4846C184.084 30.2073 183.752 30.8909 183.4 31.5354C183.049 32.1604 182.648 32.678 182.199 33.0881C181.77 33.5178 181.223 33.7327 180.559 33.7327C179.875 33.7327 179.338 33.5178 178.947 33.0881C178.557 32.6584 178.361 32.1311 178.361 31.5061C178.361 31.1741 178.498 30.637 178.771 29.8948C179.045 29.1526 179.396 28.2932 179.826 27.3167C180.256 26.3401 180.734 25.2952 181.262 24.1819C181.809 23.0491 182.346 21.9358 182.873 20.842C183.42 19.7288 183.938 18.6838 184.426 17.7073C184.914 16.7307 185.314 15.9006 185.627 15.217Z" fill="#222222"/>
</svg>
