<svg width="60" height="60" viewBox="0 0 60 60" fill="none" xmlns="http://www.w3.org/2000/svg">
<circle cx="30" cy="30" r="30" fill="white"/>
<path d="M38.5771 40.1915L20.8086 22.423C20.3643 21.9788 20.3643 21.2519 20.8086 20.8077C21.2528 20.3634 21.9797 20.3634 22.4239 20.8077L40.1924 38.5762C40.6366 39.0204 40.6366 39.7473 40.1924 40.1915C39.7482 40.6357 39.0213 40.6357 38.5771 40.1915Z" fill="#382620"/>
<path d="M40.1915 22.4229L22.423 40.1914C21.9788 40.6357 21.2519 40.6357 20.8077 40.1914C20.3634 39.7472 20.3634 39.0203 20.8077 38.5761L38.5762 20.8076C39.0204 20.3634 39.7473 20.3634 40.1915 20.8076C40.6357 21.2518 40.6357 21.9787 40.1915 22.4229Z" fill="#382620"/>
</svg>
