<svg width="21" height="16" viewBox="0 0 21 16" fill="none" xmlns="http://www.w3.org/2000/svg">
<path d="M20.5612 2.81032C20.3197 1.90093 19.6081 1.18472 18.7046 0.941661C17.0669 0.5 10.5 0.5 10.5 0.5C10.5 0.5 3.93315 0.5 2.29544 0.941661C1.39193 1.18476 0.680333 1.90093 0.438815 2.81032C0 4.45864 0 7.89772 0 7.89772C0 7.89772 0 11.3368 0.438815 12.9851C0.680333 13.8945 1.39193 14.5809 2.29544 14.8239C3.93315 15.2656 10.5 15.2656 10.5 15.2656C10.5 15.2656 17.0669 15.2656 18.7046 14.8239C19.6081 14.5809 20.3197 13.8945 20.5612 12.9851C21 11.3368 21 7.89772 21 7.89772C21 7.89772 21 4.45864 20.5612 2.81032V2.81032ZM8.35226 11.0201V4.7753L13.8409 7.8978L8.35226 11.0201H8.35226Z" fill="#222222"/>
</svg>
