<svg width="352" height="44" viewBox="0 0 352 44" fill="none" xmlns="http://www.w3.org/2000/svg">
<path d="M352 7H317V44H352L341.394 25.228L352 7Z" fill="#222222"/>
<path d="M0 7H35V44H0L10.6061 25.228L0 7Z" fill="#222222"/>
<rect x="22" width="308" height="37" fill="#222222"/>
<path d="M47.012 25.38C47.012 25.704 46.886 25.83 46.508 25.74C46.094 25.632 45.464 25.398 44.852 25.146C45.446 24.534 46.256 23.742 47.012 23.13V25.38ZM48.344 20.502C48.344 19.872 48.38 19.152 48.434 18.45C49.352 18.162 50.414 17.784 51.026 17.478C51.476 17.244 51.746 16.938 51.728 16.578C51.692 15.732 50.468 15.75 50.216 15.75C50 15.768 49.568 16.146 48.614 16.578C48.668 16.056 48.74 15.606 48.812 15.3C48.938 14.724 49.208 14.4 49.208 13.914C49.208 13.392 47.858 12.744 46.904 12.744C46.238 12.744 45.752 12.96 45.248 13.356L45.302 13.608C45.842 13.662 46.256 13.698 46.58 13.842C46.886 13.968 47.012 14.04 47.012 14.58C47.03 15.03 47.03 16.038 47.03 17.136C46.292 17.334 45.5 17.514 44.924 17.532C44.078 17.55 43.664 17.352 42.818 16.56L42.566 16.74C43.106 18.63 44.006 19.098 45.122 19.098C45.626 19.098 46.382 18.972 47.012 18.81V20.304V21.726C45.734 22.446 44.42 23.49 43.88 23.76C43.52 23.958 43.232 24.048 42.8 24.012C42.26 24.012 42.116 24.156 42.116 24.858C42.116 25.29 42.26 25.704 42.602 26.064C42.854 26.298 43.106 26.46 43.412 26.46C43.754 26.46 43.952 26.082 44.456 25.542C44.996 25.938 45.626 26.424 46.094 26.892C46.652 27.45 46.652 28.188 47.282 28.188C48.002 28.188 48.704 27.036 48.704 26.136C48.704 25.434 48.452 24.84 48.362 22.212C49.676 21.42 51.152 20.736 52.43 20.736C54.32 20.736 55.04 21.852 55.04 23.076C55.04 24.57 54.014 25.596 52.484 25.596C51.26 25.596 50.378 25.092 49.748 24.516L49.514 24.714C50.252 26.208 51.314 27.216 52.97 27.216C55.454 27.216 56.948 25.506 56.948 23.616C56.948 21.258 55.274 19.944 52.898 19.944C51.188 19.944 49.748 20.412 48.344 21.06V20.502ZM52.646 15.606C53.744 15.552 55.148 15.876 55.706 16.776C55.886 17.082 55.832 17.244 55.598 17.496C55.382 17.73 54.59 18.27 54.248 18.504L54.392 18.738C54.806 18.612 55.562 18.36 55.958 18.324C56.444 18.288 56.84 18.9 57.29 18.864C57.938 18.846 58.226 18.342 58.226 17.784C58.208 16.452 56.93 15.192 55.166 14.958C54.212 14.814 53.33 15.012 52.592 15.264L52.646 15.606ZM64.706 16.704C64.58 18.792 64.292 20.772 63.662 22.572C63.194 22.374 62.654 22.212 62.042 22.068C62.474 20.448 62.942 18.486 63.338 16.704H64.706ZM65.57 15.138L64.544 16.2H63.446C63.77 14.778 64.04 13.518 64.184 12.69C64.652 12.69 64.832 12.51 64.904 12.276L62.366 11.736C62.24 12.78 61.952 14.418 61.574 16.2H59.468L59.63 16.704H61.466C60.908 19.224 60.242 21.924 59.702 23.544C60.53 23.778 61.286 23.724 61.664 23.472C61.754 23.184 61.844 22.86 61.934 22.518C62.366 22.86 62.816 23.256 63.23 23.67C62.42 25.452 61.214 26.982 59.378 28.152L59.54 28.368C61.7 27.468 63.194 26.262 64.238 24.84C64.778 25.56 65.192 26.28 65.426 27C67.154 28.026 68.198 25.29 65.156 23.328C66.092 21.438 66.488 19.296 66.722 17.046C67.118 16.992 67.28 16.92 67.406 16.722L65.57 15.138ZM73.706 19.746H72.23V17.28C72.644 17.226 72.824 17.064 72.842 16.794L72.086 16.722C73.328 15.966 74.66 14.922 75.596 14.166C75.992 14.148 76.19 14.112 76.334 13.95L74.462 12.258L73.328 13.356H66.524L66.686 13.878H73.256C72.788 14.706 72.104 15.84 71.474 16.668L70.124 16.56V19.746H66.344L66.488 20.232H70.124V25.956C70.124 26.172 70.034 26.262 69.746 26.262C69.368 26.262 67.532 26.136 67.532 26.136V26.37C68.414 26.532 68.828 26.766 69.098 27.09C69.368 27.432 69.458 27.936 69.512 28.62C71.906 28.386 72.23 27.558 72.23 26.082V20.232H76.208C76.46 20.232 76.64 20.16 76.694 19.962C75.974 19.278 74.768 18.27 74.768 18.27L73.706 19.746ZM88.07 18.144C87.764 17.55 87.53 17.028 87.314 16.416C88.52 16.074 89.546 15.642 90.068 15.3C90.446 15.048 90.59 14.778 90.59 14.526C90.59 13.878 89.798 13.788 89.078 13.788C88.88 13.788 88.322 14.364 86.81 14.85C86.684 14.256 86.612 13.626 86.558 13.248C86.468 12.564 85.748 12.366 84.74 12.366C84.002 12.366 83.408 12.69 82.868 13.176L82.922 13.41C83.336 13.446 83.804 13.518 84.11 13.572C84.65 13.698 84.794 13.878 84.992 14.364C85.1 14.634 85.208 14.94 85.334 15.246C84.452 15.444 83.462 15.606 82.796 15.606C81.572 15.606 81.032 15.39 80.042 14.742L79.844 14.886C80.6 16.596 81.428 17.046 83.156 17.046C84.056 17.046 85.028 16.92 85.964 16.74C86.234 17.37 86.522 17.982 86.792 18.54C85.496 18.882 84.254 19.08 83.102 19.08C81.518 19.08 81.248 18.486 82.022 17.496L81.788 17.316C79.538 18.81 80.6 20.646 83.084 20.646C84.632 20.646 86.216 20.43 87.638 20.106C88.232 21.096 88.772 21.798 89.042 22.248C89.132 22.41 89.114 22.482 88.898 22.41C88.214 22.266 86.918 22.05 85.64 22.05C82.4 22.05 80.762 23.49 80.762 25.092C80.762 27.09 83.012 28.152 85.838 28.152C87.8 28.152 89.636 27.882 89.636 26.964C89.636 26.298 88.97 26.028 88.196 26.028C87.17 26.028 87.008 26.262 85.388 26.262C83.912 26.262 82.148 25.938 82.148 24.642C82.148 23.598 83.246 22.824 85.064 22.824C86.486 22.824 87.8 23.292 88.43 23.67C89.474 24.264 89.762 24.678 90.338 24.678C90.932 24.678 91.436 23.868 91.436 22.986C91.436 22.266 90.356 21.834 88.988 19.746C90.14 19.404 91.094 18.99 91.742 18.594C92.156 18.324 92.282 18.036 92.282 17.784C92.282 17.082 91.436 16.92 90.752 17.01C90.572 17.028 90.122 17.46 88.232 18.09L88.07 18.144ZM99.788 13.032C99.968 13.104 100.292 13.23 100.58 13.446C100.886 13.68 101.03 13.896 101.03 14.274C101.012 14.706 100.94 15.21 100.814 15.768C100.274 15.876 99.644 15.966 99.122 15.966C97.97 15.966 97.394 15.534 96.638 14.958L96.368 15.102C96.872 17.1 97.556 17.55 99.05 17.55C99.446 17.55 99.86 17.532 100.31 17.478C99.518 19.8 98.294 21.618 97.106 23.058C96.782 23.454 96.674 23.796 96.674 24.228C96.674 24.84 97.016 25.434 97.628 25.434C98.132 25.434 98.492 24.966 98.942 24.264C100.292 22.104 101.372 19.044 101.966 17.208C103.19 16.956 104.306 16.596 104.936 16.2C105.242 16.002 105.494 15.768 105.494 15.372C105.494 14.796 104.972 14.508 104.558 14.508C104.324 14.508 103.91 14.85 102.596 15.282C103.118 13.734 103.298 13.176 102.938 12.888C102.56 12.618 101.948 12.42 101.246 12.42C100.76 12.42 100.13 12.6 99.788 12.78V13.032ZM105.656 24.804C105.656 25.83 104.936 26.406 103.604 26.406C102.344 26.406 101.858 25.974 101.858 25.38C101.858 24.804 102.542 24.138 104 24.138C104.594 24.138 105.152 24.192 105.656 24.318C105.656 24.48 105.656 24.642 105.656 24.804ZM106.466 16.236C107.24 16.308 107.888 16.506 108.284 16.848C108.464 16.992 108.536 17.154 108.446 17.316C107.888 17.604 106.97 17.946 106.286 18.774C105.746 19.404 105.548 20.196 105.548 21.33C105.548 21.816 105.566 22.374 105.602 22.95C105.422 22.932 105.242 22.932 105.062 22.932C102.434 22.932 100.994 24.264 100.994 25.722C100.994 27.054 102.182 28.062 104.162 28.062C106.232 28.062 107.456 27.216 107.456 25.614C107.456 25.398 107.456 25.182 107.438 24.966C108.104 25.308 108.644 25.722 109.094 26.136C109.796 26.748 110.048 27.252 110.588 27.252C111.002 27.252 111.416 26.946 111.416 26.244C111.416 25.452 110.624 24.696 109.49 24.102C108.896 23.76 108.158 23.418 107.222 23.184C107.06 22.212 106.88 21.33 106.808 20.808C106.7 20.106 106.664 19.494 106.934 19.098C107.204 18.72 107.762 18.522 108.284 18.504C109.274 18.486 109.76 19.026 110.462 19.026C111.038 19.026 111.236 18.612 111.236 18.036C111.236 17.028 110.48 16.218 109.256 15.84C108.518 15.624 107.474 15.588 106.448 15.912L106.466 16.236ZM127.76 17.478C128.894 17.478 129.794 16.56 129.794 15.426C129.794 14.31 128.894 13.392 127.76 13.392C126.626 13.392 125.708 14.31 125.708 15.426C125.708 16.56 126.626 17.478 127.76 17.478ZM127.76 14.13C128.48 14.13 129.056 14.706 129.056 15.426C129.056 16.164 128.48 16.74 127.76 16.74C127.022 16.74 126.446 16.164 126.446 15.426C126.446 14.706 127.022 14.13 127.76 14.13ZM119.048 18.504C119.048 19.764 116.096 23.562 113.288 25.596L113.504 25.902C116.348 24.66 119.264 22.338 120.794 20.466C121.208 19.998 121.766 19.692 121.766 19.242C121.766 18.45 120.542 16.848 119.3 16.776C118.85 16.74 118.274 16.83 117.914 16.902L117.86 17.172C118.526 17.514 119.048 18 119.048 18.504ZM129.74 23.292C129.632 20.7 126.41 17.964 123.35 16.704L123.134 16.992C125.294 18.792 126.446 20.934 127.22 23.49C127.49 24.408 127.778 25.002 128.516 24.984C129.254 24.984 129.776 24.192 129.74 23.292ZM134.69 14.742C134.672 15.228 134.708 15.696 134.834 16.056C135.05 16.722 135.896 17.766 136.688 17.766C137.192 17.766 137.408 17.334 138.002 17.136C138.902 16.83 141.206 16.146 141.926 16.074C142.124 16.074 142.232 16.146 142.124 16.416C140.666 19.926 136.238 24.516 132.008 26.712L132.206 27.09C136.58 25.74 139.37 23.238 141.026 21.546C142.7 22.662 143.402 23.94 144.23 25.308C144.842 26.262 145.31 26.802 146.012 26.802C146.732 26.802 147.128 26.19 147.128 25.632C147.128 23.652 144.482 21.942 141.53 21.024C142.7 19.728 143.636 18.18 144.248 17.28C144.464 16.974 145.292 16.704 145.292 16.182C145.292 15.606 143.672 14.22 142.898 14.22C142.52 14.22 142.214 14.742 141.764 14.85C140.9 15.066 137.75 15.66 136.508 15.66C135.896 15.66 135.392 15.138 134.996 14.616L134.69 14.742ZM161.69 16.596C161.222 17.766 160.52 19.044 159.602 20.304C158.288 19.62 156.65 19.098 155.48 18.774C156.182 18.09 156.83 17.352 157.406 16.632C157.676 16.83 157.91 16.974 158.09 16.974C158.432 16.974 158.72 16.848 159.098 16.74C159.62 16.56 161.006 16.272 161.456 16.254C161.69 16.254 161.78 16.344 161.69 16.596ZM155.318 13.05C155.894 13.374 156.326 13.788 156.326 14.13C156.326 15.282 153.518 19.404 150.746 21.744L150.98 22.05C152.474 21.33 153.878 20.286 155.12 19.134C156.434 19.764 157.568 20.412 158.648 21.528C156.632 23.94 153.95 26.244 150.944 27.756L151.142 28.098C154.814 26.892 157.568 25.128 159.782 22.86C160.826 24.21 161.06 24.822 161.834 24.786C162.428 24.786 162.86 24.336 162.842 23.67C162.806 22.788 162.104 21.996 161.186 21.294C162.14 20.124 162.986 18.828 163.796 17.424C164.03 16.992 164.768 16.758 164.768 16.308C164.768 15.57 163.076 14.49 162.554 14.49C162.14 14.49 161.834 14.94 161.384 15.084C160.934 15.228 158.972 15.534 158.18 15.588C158.342 15.354 158.504 15.12 158.648 14.886C158.954 14.418 159.188 14.328 159.188 13.95C159.188 13.482 157.82 12.744 156.614 12.69C156.038 12.654 155.714 12.708 155.354 12.798L155.318 13.05ZM179.942 17.046C180.266 17.208 180.644 17.478 180.824 17.694C181.058 17.964 181.022 18.18 180.698 18.36C179.888 18.846 178.412 19.512 177.17 20.16C176.918 19.044 176.198 18.378 175.082 18.378C174.38 18.378 173.768 18.666 173.138 19.08C172.994 19.17 172.94 19.08 173.012 18.954C173.624 18.108 174.074 17.388 174.398 16.812C176.342 16.452 177.944 15.84 178.538 15.534C179.024 15.3 179.186 15.012 179.186 14.742C179.186 14.112 178.628 13.914 177.98 13.914C177.746 13.914 177.584 14.166 176.972 14.418C176.594 14.58 176.036 14.76 175.406 14.94L175.928 13.968C176.09 13.626 176.234 13.482 176.234 13.23C176.234 12.6 174.794 12.348 174.02 12.348C173.678 12.348 173.12 12.528 172.706 12.726L172.688 12.96C173.156 13.122 173.516 13.266 173.768 13.446C174.092 13.644 174.11 13.878 174.02 14.166C173.966 14.436 173.822 14.868 173.588 15.39C172.958 15.498 172.346 15.588 171.806 15.606C170.564 15.624 169.934 15.138 169.322 14.634L169.052 14.778C169.556 16.2 169.916 17.118 171.338 17.118C171.806 17.118 172.292 17.1 172.76 17.046C172.166 18.09 171.356 19.224 170.384 20.196C169.682 20.916 169.07 21.276 169.088 21.888C169.106 22.608 169.376 23.148 169.988 23.13C170.672 23.076 171.23 21.978 171.878 21.168C172.508 20.376 173.624 19.098 174.542 19.098C175.388 19.098 175.604 19.62 175.622 21.042C173.786 22.194 171.878 23.76 171.878 25.326C171.878 26.892 172.976 28.152 176.504 28.152C178.034 28.152 179.744 27.918 180.572 27.666C181.22 27.468 181.436 27.162 181.436 26.658C181.436 25.902 180.644 25.704 179.762 25.704C179.06 25.704 177.998 26.298 175.316 26.298C173.57 26.298 172.868 25.758 172.868 25.038C172.868 24.066 174.074 23.058 175.586 22.248C175.55 23.004 175.496 23.688 175.496 24.156C175.496 24.876 175.982 25.164 176.504 25.164C177.134 25.164 177.458 24.696 177.458 24.084C177.458 23.436 177.44 22.41 177.35 21.42C178.844 20.79 180.644 20.178 181.868 19.854C182.768 19.602 183.29 19.62 183.29 19.08C183.29 18.378 182.516 17.496 181.886 17.136C181.436 16.884 180.986 16.776 180.086 16.74L179.942 17.046ZM191.012 25.38C191.012 25.704 190.886 25.83 190.508 25.74C190.094 25.632 189.464 25.398 188.852 25.146C189.446 24.534 190.256 23.742 191.012 23.13V25.38ZM192.344 20.502C192.344 19.872 192.38 19.152 192.434 18.45C193.352 18.162 194.414 17.784 195.026 17.478C195.476 17.244 195.746 16.938 195.728 16.578C195.692 15.732 194.468 15.75 194.216 15.75C194 15.768 193.568 16.146 192.614 16.578C192.668 16.056 192.74 15.606 192.812 15.3C192.938 14.724 193.208 14.4 193.208 13.914C193.208 13.392 191.858 12.744 190.904 12.744C190.238 12.744 189.752 12.96 189.248 13.356L189.302 13.608C189.842 13.662 190.256 13.698 190.58 13.842C190.886 13.968 191.012 14.04 191.012 14.58C191.03 15.03 191.03 16.038 191.03 17.136C190.292 17.334 189.5 17.514 188.924 17.532C188.078 17.55 187.664 17.352 186.818 16.56L186.566 16.74C187.106 18.63 188.006 19.098 189.122 19.098C189.626 19.098 190.382 18.972 191.012 18.81V20.304V21.726C189.734 22.446 188.42 23.49 187.88 23.76C187.52 23.958 187.232 24.048 186.8 24.012C186.26 24.012 186.116 24.156 186.116 24.858C186.116 25.29 186.26 25.704 186.602 26.064C186.854 26.298 187.106 26.46 187.412 26.46C187.754 26.46 187.952 26.082 188.456 25.542C188.996 25.938 189.626 26.424 190.094 26.892C190.652 27.45 190.652 28.188 191.282 28.188C192.002 28.188 192.704 27.036 192.704 26.136C192.704 25.434 192.452 24.84 192.362 22.212C193.676 21.42 195.152 20.736 196.43 20.736C198.32 20.736 199.04 21.852 199.04 23.076C199.04 24.57 198.014 25.596 196.484 25.596C195.26 25.596 194.378 25.092 193.748 24.516L193.514 24.714C194.252 26.208 195.314 27.216 196.97 27.216C199.454 27.216 200.948 25.506 200.948 23.616C200.948 21.258 199.274 19.944 196.898 19.944C195.188 19.944 193.748 20.412 192.344 21.06V20.502ZM196.646 15.606C197.744 15.552 199.148 15.876 199.706 16.776C199.886 17.082 199.832 17.244 199.598 17.496C199.382 17.73 198.59 18.27 198.248 18.504L198.392 18.738C198.806 18.612 199.562 18.36 199.958 18.324C200.444 18.288 200.84 18.9 201.29 18.864C201.938 18.846 202.226 18.342 202.226 17.784C202.208 16.452 200.93 15.192 199.166 14.958C198.212 14.814 197.33 15.012 196.592 15.264L196.646 15.606ZM217.382 13.23V14.472H216.428L214.466 13.68V16.344C214.466 17.406 214.664 17.73 216.086 17.73H217.346C219.434 17.73 220.082 17.496 220.082 16.83C220.082 16.542 219.974 16.362 219.542 16.164L219.488 15.12H219.272C219.074 15.66 218.858 16.02 218.732 16.164C218.66 16.254 218.552 16.29 218.408 16.29H217.544H216.59C216.248 16.29 216.212 16.236 216.212 16.056V14.976H217.382V15.39H217.688C218.282 15.39 219.146 15.03 219.164 14.886V13.446C219.452 13.392 219.668 13.266 219.758 13.158L218.03 11.862L217.22 12.726H214.214L214.358 13.23H217.382ZM211.532 13.23V14.472H210.524L208.58 13.698V16.344C208.58 17.388 208.778 17.712 210.164 17.712H211.406C213.476 17.712 214.124 17.478 214.124 16.812C214.124 16.524 214.016 16.362 213.566 16.164L213.512 15.156H213.314C213.098 15.678 212.9 16.02 212.774 16.164C212.684 16.254 212.576 16.29 212.432 16.29H211.604H210.668C210.326 16.29 210.29 16.236 210.29 16.056V14.976H211.532V15.39H211.838C212.414 15.39 213.296 15.048 213.296 14.886V13.446C213.602 13.392 213.818 13.266 213.908 13.14L212.18 11.88L211.388 12.726H208.526L208.688 13.23H211.532ZM203.882 12.366C204.62 13.23 205.34 14.562 205.484 15.75C207.41 17.244 209.264 13.356 204.044 12.258L203.882 12.366ZM212.846 20.124H214.844V22.104H212.846V20.124ZM217.346 22.104H216.806V20.124H219.29C219.542 20.124 219.722 20.034 219.776 19.836C219.092 19.242 218.03 18.432 218.03 18.432L217.076 19.602H216.806V18.504C217.148 18.432 217.274 18.306 217.292 18.09L214.844 17.874V19.602H212.846V18.504C213.188 18.432 213.296 18.306 213.332 18.09L210.92 17.874V19.602H208.67L208.814 20.124H210.92V22.104H207.986L208.13 22.626H219.866C220.118 22.626 220.298 22.536 220.352 22.338C219.614 21.69 218.408 20.79 218.408 20.79L217.346 22.104ZM211.478 22.626C210.902 23.544 209.642 24.786 208.382 25.542C208.076 25.344 207.788 25.128 207.518 24.84V20.34C208.04 20.268 208.31 20.142 208.436 19.98L206.33 18.252L205.322 19.584H203.558L203.666 20.088H205.61V25.452C204.836 25.812 204.062 26.136 203.522 26.334L204.638 28.584C204.818 28.512 204.926 28.386 204.908 28.152C205.574 27.414 206.618 26.136 207.32 25.128C208.58 27.684 210.002 28.188 213.53 28.188H219.344C219.452 27.27 219.92 26.658 220.73 26.478V26.244C218.444 26.316 215.6 26.334 213.494 26.334C211.154 26.334 209.804 26.244 208.778 25.758C210.38 25.434 211.91 24.876 212.864 24.282C213.422 24.39 213.728 24.318 213.89 24.12L211.478 22.626ZM214.628 23.274C216.032 23.976 216.95 24.876 217.4 25.578C218.912 27.162 222.584 23.67 214.718 23.058L214.628 23.274ZM236.426 15.732C236.75 15.732 237.02 15.534 237.02 15.102C237.038 14.76 236.93 14.472 236.57 14.094C236.12 13.608 235.4 13.194 234.5 12.87L234.302 13.104C235.04 13.842 235.382 14.454 235.67 14.994C235.922 15.462 236.084 15.714 236.426 15.732ZM237.956 14.418C238.334 14.436 238.532 14.148 238.55 13.77C238.55 13.482 238.388 13.086 237.992 12.744C237.452 12.312 236.768 12.06 235.796 11.808L235.616 12.042C236.426 12.69 236.876 13.284 237.182 13.716C237.488 14.112 237.668 14.418 237.956 14.418ZM224.672 16.434C225.086 16.542 225.806 16.56 226.202 16.524C224.726 18.45 223.25 20.7 223.25 23.436C223.25 26.73 225.428 28.116 227.894 28.116C231.674 28.116 233.006 25.65 233.348 23.742C233.636 22.14 233.564 20.574 233.564 19.89C233.564 19.296 233.744 19.26 233.924 19.818C234.32 21.042 234.86 22.266 235.328 22.914C235.67 23.436 236.12 23.85 236.606 23.85C237.092 23.85 237.344 23.382 237.344 22.788C237.344 21.888 236.984 21.438 236.552 21.042C235.742 20.304 234.824 19.116 234.572 17.802C234.41 16.92 234.428 16.02 234.428 15.012C234.428 14.328 233.816 13.698 233.114 13.68C232.628 13.662 232.232 14.094 232.232 14.724C232.232 15.264 232.448 16.2 232.556 16.686C232.718 17.514 232.754 18.216 232.754 18.918C232.754 23.436 231.35 26.028 227.966 26.028C226.094 26.028 224.654 24.948 224.654 23.004C224.654 20.25 226.202 18.018 227.408 16.866C228.002 16.308 228.722 16.146 229.244 15.894C229.748 15.66 229.856 15.444 229.856 15.12C229.856 14.688 228.938 13.878 228.326 13.878C228.02 13.878 227.912 14.058 227.498 14.292C226.85 14.688 225.572 14.886 224.87 14.886C224.33 14.886 223.862 14.67 223.394 14.328L223.214 14.508C223.556 15.588 223.97 16.2 224.672 16.434ZM248.54 13.86C248.54 14.112 248.432 14.31 248.162 14.652C247.46 15.57 244.868 18.27 243.914 19.44C243.536 19.89 243.392 20.214 243.392 20.592C243.392 20.934 243.59 21.384 244.04 21.744C246.146 23.544 247.55 24.93 248.252 26.064C248.738 26.838 248.936 27.252 249.152 27.648C249.368 27.99 249.728 28.296 250.214 28.296C251.15 28.296 251.456 27.63 251.456 27.054C251.456 26.442 251.24 25.848 250.61 25.056C249.386 23.508 247.37 22.338 245.642 21.114C245.264 20.862 244.994 20.61 244.994 20.358C244.994 20.124 245.174 19.89 245.642 19.422C246.398 18.666 248.54 16.956 249.854 16.038C250.628 15.516 251.186 15.372 251.186 14.796C251.186 14.166 250.34 13.122 249.314 12.6C248.864 12.384 248.36 12.312 247.802 12.258L247.622 12.528C248.144 12.996 248.54 13.464 248.54 13.86ZM269.654 14.13C270.482 14.868 270.932 15.516 271.256 16.002C271.544 16.434 271.778 16.686 272.066 16.704C272.462 16.704 272.75 16.434 272.75 16.056C272.75 15.714 272.624 15.39 272.228 15.03C271.688 14.526 270.842 14.184 269.834 13.896L269.654 14.13ZM268.322 21.294C268.952 21.06 269.726 20.826 270.518 20.718C270.986 20.61 271.382 20.592 271.706 20.574C272.48 20.556 272.822 20.286 272.822 19.782C272.822 19.404 272.606 19.008 272.066 18.666C271.67 18.45 270.914 18.162 269.726 18.162C268.268 18.162 266.81 18.702 265.874 19.332L265.982 19.602C266.792 19.458 267.548 19.368 268.106 19.368C268.628 19.368 269.276 19.44 269.654 19.566C269.798 19.62 269.834 19.71 269.744 19.818C269.564 20.016 268.682 20.7 268.16 21.06L268.322 21.294ZM264.56 15.84C264.974 14.472 265.352 14.13 265.352 13.644C265.334 13.158 264.182 12.582 263.084 12.582C262.562 12.564 262.094 12.69 261.608 12.888L261.59 13.158C262.022 13.302 262.382 13.464 262.652 13.68C262.958 13.914 263.012 14.058 262.994 14.508C262.958 14.958 262.832 15.732 262.652 16.596C261.986 16.722 261.194 16.83 260.438 16.812C259.682 16.812 259.16 16.596 258.224 15.93L258.008 16.092C258.584 18.054 259.412 18.396 260.78 18.396C261.194 18.396 261.734 18.342 262.238 18.27C262.094 18.792 261.95 19.296 261.806 19.71C261.014 21.996 260.15 23.634 259.484 24.714C258.98 25.56 258.53 25.812 258.53 26.55C258.53 27.288 258.962 27.882 259.502 27.882C260.168 27.882 260.42 27.504 260.744 26.892C261.446 25.596 262.58 22.374 263.246 20.322C263.516 19.548 263.75 18.702 263.966 17.946C265.1 17.676 266.252 17.316 266.774 17.118C268.088 16.65 268.484 16.362 268.484 15.858C268.484 15.156 267.602 14.904 267.152 14.904C266.99 14.904 266.72 15.12 266.36 15.318C265.874 15.588 265.262 15.858 264.488 16.11L264.56 15.84ZM264.902 22.86C264.83 23.364 264.758 24.066 264.866 24.642C265.064 26.658 266.648 27.774 269.402 27.774C270.608 27.774 271.4 27.648 271.976 27.504C272.696 27.342 273.146 27.018 273.146 26.55C273.146 25.776 272.3 25.452 271.598 25.452C271.238 25.452 270.554 25.794 268.97 25.794C267.512 25.794 266.468 25.488 265.766 24.462C265.406 23.94 265.28 23.292 265.208 22.842L264.902 22.86ZM271.292 12.996C272.228 13.716 272.606 14.238 272.93 14.652C273.272 15.084 273.47 15.372 273.812 15.372C274.19 15.372 274.424 15.138 274.424 14.742C274.424 14.328 274.244 13.986 273.794 13.626C273.29 13.248 272.48 12.96 271.436 12.744L271.292 12.996ZM280.76 13.86C281.786 13.932 282.488 14.076 282.794 14.544C283.082 14.994 283.46 15.678 283.838 16.326C282.758 16.65 281.552 16.884 280.742 16.884C279.5 16.902 278.78 16.668 277.61 15.696L277.358 15.894C278.168 17.748 278.762 18.54 281.066 18.504C282.2 18.486 283.622 18.18 284.756 17.838C285.548 18.99 286.502 20.196 287.168 20.934C287.33 21.114 287.294 21.15 287.078 21.114C286.376 20.952 285.098 20.682 283.532 20.682C280.616 20.682 278.474 22.266 278.474 24.3C278.474 26.604 280.922 27.882 284.324 27.882C286.988 27.882 287.924 27.396 287.924 26.676C287.924 25.92 287.204 25.632 286.412 25.632C285.71 25.632 284.954 25.83 283.694 25.83C281.174 25.83 279.95 24.984 279.95 23.85C279.95 22.5 281.21 21.492 283.082 21.492C285.08 21.492 286.448 22.248 287.366 22.842C287.96 23.238 288.32 23.58 288.86 23.58C289.526 23.58 289.85 22.572 289.85 21.942C289.832 21.528 289.688 21.258 289.256 20.844C288.32 19.944 287.078 18.792 286.16 17.334C287.492 16.812 288.752 16.146 289.274 15.642C289.616 15.318 289.652 14.814 289.382 14.508C289.076 14.184 288.5 14.13 288.05 14.184C287.654 14.274 287.096 15.03 285.35 15.786C285.062 15.174 284.846 14.544 284.594 13.59C284.486 13.158 283.694 12.834 282.668 12.834C281.948 12.834 281.246 13.194 280.688 13.59L280.76 13.86ZM295.502 21.456C295.7 24.354 297.356 25.974 298.814 26.586C299.948 27.054 300.794 26.64 300.794 25.812C300.794 25.254 300.506 25.29 300.542 24.192C300.56 23.562 300.956 22.032 301.37 20.646L300.992 20.484C300.362 21.672 299.714 22.842 299.12 23.688C298.922 23.94 298.67 23.958 298.4 23.85C297.824 23.598 296.996 22.644 296.996 21.078C296.996 18.81 297.95 17.82 297.95 16.938C297.95 16.11 296.87 15.084 295.952 14.706C295.43 14.49 294.728 14.454 294.26 14.472L294.17 14.67C295.124 15.444 295.556 16.182 295.556 17.226C295.556 18.45 295.376 20.034 295.502 21.456ZM306.824 19.566C307.364 21.078 307.31 22.068 307.508 22.842C307.652 23.328 308.048 23.526 308.426 23.526C309.308 23.526 309.686 22.914 309.686 21.78C309.686 20.394 309.182 18.882 308.102 17.874C307.04 16.884 305.96 16.254 304.07 16.146L303.98 16.452C305.402 17.082 306.374 18.252 306.824 19.566Z" fill="white"/>
</svg>
