<svg width="113" height="55" viewBox="0 0 113 55" fill="none" xmlns="http://www.w3.org/2000/svg">
<path d="M25.1095 15.4229C25.1395 15.6381 25.1984 16.0237 25.2859 16.5798C25.3735 17.1359 25.4378 17.5607 25.4788 17.8541C25.5198 18.1475 25.5474 18.5226 25.5616 18.9794C25.5759 19.4362 25.552 19.8684 25.49 20.2761C25.4842 20.3767 25.4113 20.9904 25.2714 22.1173C25.1314 23.2441 24.9914 24.0867 24.8513 24.6451C24.0252 27.8139 22.5768 31.1404 20.5062 34.6248C18.706 37.6321 16.8623 40.1867 14.9753 42.2887C13.6393 43.7942 12.3178 45.0483 11.0107 46.0509C9.99277 46.8531 9.07253 47.4321 8.24997 47.7878C7.65248 48.0518 6.9774 48.257 6.22471 48.4033C5.3165 48.5716 4.48153 48.2708 3.7198 47.5009C3.62565 47.3945 3.49338 47.2636 3.323 47.1082C3.15261 46.9527 2.99817 46.805 2.85967 46.665C2.72117 46.525 2.60348 46.3921 2.5066 46.2662C2.13851 45.7597 1.90223 45.2745 1.79779 44.8105C1.63292 44.0559 1.56603 42.9383 1.59714 41.4578C1.62604 40.9551 1.67862 40.4091 1.75491 39.8198C1.8312 39.2305 1.91841 38.7195 2.01656 38.2868C2.1147 37.854 2.2367 37.3081 2.38256 36.6492C2.5284 35.9903 2.63506 35.4765 2.70252 35.1079C2.71376 35.0465 2.88861 34.4533 3.22708 33.3282C3.08858 33.1882 2.90788 32.9944 2.68495 32.7466C2.46202 32.4989 2.26399 32.2876 2.09088 32.1126C1.91775 31.9376 1.75223 31.7815 1.59429 31.6442C1.25625 31.3529 1.02665 30.9864 0.90549 30.5448C0.784341 30.1031 0.745035 29.6798 0.787593 29.2749C0.769727 28.5792 0.84565 27.8454 1.01536 27.0734C1.18506 26.3014 1.37533 25.6411 1.58618 25.0927C1.79701 24.5443 2.07409 23.8668 2.41738 23.0602C3.54751 20.5067 5.03698 18.0421 6.88576 15.6662C8.31138 13.809 9.8404 12.2663 11.4728 11.0381C12.7826 10.0549 14.1611 9.42118 15.6081 9.13675C17.9968 8.63938 20.1181 9.13728 21.9721 10.6305C23.0196 11.4597 23.861 12.5874 24.4963 14.0136C24.5294 14.1086 24.5874 14.2401 24.6703 14.4079C24.7533 14.5757 24.8113 14.7071 24.8444 14.8022C25.0074 15.1182 25.0958 15.3251 25.1095 15.4229ZM23.536 18.847C23.539 18.7269 23.5403 18.4524 23.5399 18.0236C23.5395 17.5948 23.5312 17.2868 23.5149 17.0996C23.4987 16.9124 23.4722 16.6518 23.4355 16.3179C23.3988 15.984 23.3418 15.6829 23.2647 15.4145C23.1876 15.1462 23.091 14.8806 22.975 14.6177C22.9252 14.545 22.8975 14.489 22.8921 14.4499C22.7694 13.43 22.1467 12.5905 21.0238 11.9315C19.0608 10.7928 16.9969 10.7057 14.832 11.6701C13.4508 12.2843 11.956 13.4332 10.3476 15.1168C8.82811 16.728 7.40369 18.6648 6.07433 20.9273C4.32968 23.9068 3.1977 26.6601 2.6784 29.187C2.56323 29.7818 2.68954 30.4022 3.05733 31.0483C3.23985 31.3616 3.50196 31.4642 3.84369 31.356C4.10072 30.6415 4.23622 30.2633 4.25019 30.2214C4.32553 30.0512 4.52437 29.5942 4.8467 28.8504C5.16904 28.1067 5.41117 27.5339 5.57309 27.132C6.28249 25.2564 7.3655 23.288 8.82212 21.2269C9.22037 20.6719 9.74451 20.3086 10.3945 20.1369C10.486 20.2237 10.5933 20.3182 10.7166 20.4205C10.8399 20.5227 10.9743 20.6334 11.1198 20.7524C11.2653 20.8715 11.3935 20.973 11.5043 21.0571C11.4873 21.2191 11.4723 21.4306 11.4592 21.6918C11.4461 21.953 11.438 22.1436 11.435 22.2637C11.3351 22.2579 11.2143 22.2451 11.0728 22.2252C10.9312 22.2053 10.8216 22.2009 10.7438 22.2119C9.69912 23.8157 8.68583 25.6446 7.70396 27.6984C6.7221 29.7521 6.26515 31.0934 6.33314 31.7221C6.90541 31.5614 7.21098 31.4783 7.24986 31.4728C8.71909 31.2051 10.2486 30.6597 11.8385 29.8365C12.3193 29.5889 13.6064 28.8684 15.6996 27.6747C16.5252 27.1989 17.2502 26.9967 17.8747 27.0679C18.0095 27.6074 17.9044 28.0611 17.5593 28.429C16.7716 29.3184 16.179 29.9009 15.7814 30.1765C14.3716 31.1538 12.6441 32.0564 10.599 32.8842C9.17346 33.4647 7.4515 33.7681 5.43314 33.7942C5.30188 34.1319 5.23763 34.3106 5.24036 34.3301C4.62785 36.3317 4.15809 38.4327 3.83108 40.6333C3.61682 42.0798 3.57527 43.2726 3.70641 44.2115C3.78322 44.6195 3.968 45.1619 4.26076 45.8386C4.45694 46.2497 4.82157 46.4474 5.35464 46.4319C6.10701 46.4252 6.91971 46.1408 7.79271 45.5785C10.0864 44.1171 12.1297 42.2822 13.9226 40.0739C16.0216 37.5031 17.736 35.0166 19.0657 32.6144C20.6964 29.6709 21.8433 27.0951 22.5062 24.887C22.5567 24.6804 22.624 24.3816 22.7081 23.9907C22.7923 23.5998 22.854 23.3318 22.8932 23.1866C23.3553 21.3859 23.5696 19.9393 23.536 18.847ZM36.2236 28.5722C36.5808 29.0005 36.7043 29.6014 36.5943 30.3749C36.2959 32.2124 35.4482 33.8782 34.0511 35.3723C34.0177 35.4169 33.7074 35.75 33.1202 36.3716C32.9258 36.3991 32.7315 36.3917 32.5373 36.3494C32.343 36.307 32.1925 36.2585 32.0858 36.2038C31.979 36.149 31.8106 36.0432 31.5805 35.8862C31.3504 35.7293 31.2035 35.6354 31.1397 35.6045C31.1574 35.1631 31.4081 34.7587 31.892 34.391C33.1408 33.3966 34.0077 31.8677 34.4926 29.8044C34.1172 30.0969 33.9197 30.2445 33.9003 30.2472C32.848 31.5131 31.8587 33.159 30.9324 35.185C29.8974 37.4258 29.0596 40.2272 28.419 43.5891C28.2112 44.6558 27.9093 46.1845 27.5134 48.1754C27.1174 50.1663 26.8661 51.4186 26.7595 51.9324C26.7285 52.1362 26.675 52.4629 26.599 52.9125C26.523 53.3621 26.4612 53.7 26.4135 53.9261C26.3096 54.4595 26.0714 54.8123 25.699 54.9846C25.1969 54.7963 24.6421 54.5855 24.0347 54.3523C23.9473 53.7263 23.9708 53.1146 24.1055 52.5171C24.1504 52.2714 24.204 51.9098 24.2661 51.4322C24.3283 50.9547 24.386 50.6224 24.4391 50.4353C24.4814 50.17 24.6682 49.2011 24.9996 47.5285C25.3309 45.856 25.5642 44.5813 25.6995 43.7044C26.0793 41.4565 26.3506 39.3536 26.5132 37.3957C26.5786 36.7282 26.6903 34.618 26.8482 31.065C26.8734 30.9617 26.8711 30.7675 26.8412 30.4825C26.8113 30.1975 26.8062 29.9838 26.826 29.8414C26.8457 29.699 26.9724 28.9031 27.2061 27.4538C27.2617 27.426 27.3215 27.3926 27.3854 27.3536C27.4494 27.3147 27.505 27.2869 27.5522 27.2702C27.5994 27.2536 27.6418 27.2376 27.6793 27.2223C27.7168 27.207 27.7537 27.1869 27.7898 27.1618C28.0313 27.1875 28.2677 27.3186 28.4989 27.5552C28.7302 27.7918 28.8539 28.0386 28.87 28.2957C28.9246 28.6869 28.939 29.0738 28.9132 29.4565C28.9153 29.7554 28.894 30.277 28.8493 31.0214C28.8045 31.7657 28.7804 32.3377 28.7767 32.7371C28.7821 32.7762 28.8368 33.1675 28.9406 33.9108C29.1858 33.537 29.307 33.3403 29.3042 33.3208C29.6806 32.6093 29.9796 32.0534 30.2012 31.653C30.4229 31.2526 30.7266 30.7659 31.1124 30.1927C31.4982 29.6195 31.8803 29.1266 32.2588 28.714C32.6373 28.3015 33.0699 27.9211 33.5565 27.5731C33.9347 27.3002 34.264 27.1738 34.5443 27.194C34.8247 27.2142 35.1158 27.3825 35.4177 27.6988C35.6698 27.9424 35.9384 28.2336 36.2236 28.5722ZM48.6047 26.5222C48.7747 27.4556 48.6853 28.306 48.3365 29.0734C47.5357 30.8622 46.5636 32.2763 45.4203 33.3157C44.7359 33.9511 44.0352 34.3992 43.3184 34.6602C42.6015 34.9211 41.8991 34.9656 41.2109 34.7936C40.5228 34.6216 39.9296 34.2418 39.4312 33.654C39.0546 33.2285 38.7777 32.8787 38.6007 32.6045C38.2162 31.9807 38.1432 31.1034 38.3817 29.9725C38.654 28.6574 39.2409 27.5372 40.1425 26.6118C40.1787 26.5867 40.2281 26.5149 40.2908 26.3963C40.3536 26.2777 40.4114 26.1948 40.4642 26.1474C40.9679 25.6373 41.2933 25.342 41.4407 25.2613C42.4276 24.6629 43.2642 24.8338 43.9506 25.774C43.9533 25.7936 43.9796 25.8398 44.0294 25.9125C44.0792 25.9852 44.1263 26.0384 44.1706 26.0721C44.4504 26.3716 44.6405 26.7038 44.741 27.0685C44.8415 27.4333 44.856 27.7853 44.7844 28.1246C44.7129 28.4638 44.5941 28.7848 44.4283 29.0875C44.2624 29.3903 44.0571 29.6587 43.8122 29.8928C42.7548 30.9798 41.5849 31.4744 40.3025 31.3765C40.3025 31.3765 40.215 31.3888 40.04 31.4136C39.9695 31.9023 39.9937 32.2529 40.1126 32.4655C40.2315 32.6781 40.4949 32.8254 40.9029 32.9073C41.5966 33.0486 42.2241 32.9997 42.7855 32.7608C43.6636 32.3773 44.4841 31.7227 45.2469 30.7969C46.5525 29.216 47.3361 27.659 47.5978 26.126C47.595 26.1064 47.6828 25.9544 47.8612 25.6698C48.2664 25.7322 48.5142 26.0163 48.6047 26.5222ZM42.7117 26.6973C41.7886 27.3265 41.1106 28.2203 40.6776 29.3786C41.4276 29.2127 41.9954 28.8781 42.381 28.3747C42.7667 27.8714 42.8769 27.3122 42.7117 26.6973ZM58.056 25.425C58.624 25.9431 58.7977 26.477 58.5771 27.0268C58.4152 27.4287 58.2396 27.7328 58.0504 27.9391C57.4659 28.5803 56.773 29.2966 55.9717 30.0882C55.468 30.5982 54.7193 30.8437 53.7254 30.8247C53.5924 30.7238 53.4622 30.6076 53.3348 30.476C53.2074 30.3444 53.0973 30.1954 53.0047 30.029C52.9121 29.8626 52.8381 29.7234 52.7829 29.6116C52.7276 29.4997 52.6634 29.3243 52.5904 29.0852C52.5174 28.8462 52.4692 28.6785 52.4458 28.5821C52.4224 28.4856 52.3763 28.2977 52.3076 28.0182C52.2388 27.7387 52.1989 27.5598 52.188 27.4815C51.8207 27.8327 51.3599 28.4364 50.8055 29.2928C49.9725 30.5675 49.4822 31.315 49.3346 31.5354C48.9391 32.11 48.5483 32.4345 48.1622 32.509C47.9569 32.4583 47.7684 32.3503 47.5966 32.1851C47.4248 32.0199 47.258 31.8191 47.0962 31.5827C46.9343 31.3462 46.7965 31.1762 46.683 31.0726C46.7279 30.8269 46.7814 30.5002 46.8434 30.0924C46.9054 29.6847 46.961 29.3378 47.0103 29.0515C47.0595 28.7653 47.1185 28.4428 47.1873 28.084C47.2562 27.7252 47.3187 27.3922 47.3749 27.085C47.4253 26.8784 47.4639 26.7284 47.4904 26.6348C47.517 26.5413 47.5687 26.4143 47.6454 26.2539C47.7221 26.0934 47.8244 25.9742 47.9523 25.8963C48.0802 25.8184 48.251 25.7643 48.4649 25.7341C48.9025 26.1709 49.1496 26.8042 49.206 27.634C50.3895 26.0304 51.0578 25.138 51.2109 24.9568C51.4475 24.664 51.7979 24.405 52.2621 24.1798C52.7624 23.9295 53.1758 24.0506 53.5022 24.543C54.1054 25.455 54.3406 26.4291 54.2077 27.4652C54.1938 27.5071 54.1943 27.866 54.2095 28.5421C54.8319 28.3145 55.5424 27.7951 56.341 26.984C57.1396 26.1729 57.7113 25.6532 58.056 25.425ZM74.89 9.90912C75.0514 8.50994 75.0561 7.05313 74.904 5.5387C74.7899 4.43779 74.7027 3.74201 74.6422 3.45134C74.6286 3.35354 74.5893 3.24939 74.5243 3.1389C74.4593 3.02841 74.3832 2.90951 74.296 2.7822C74.2089 2.6549 74.1515 2.56328 74.1238 2.50735C73.3049 2.46358 72.6198 2.8098 72.0685 3.54603C71.1049 4.87913 70.4516 5.87911 70.1086 6.54598C68.2154 10.1648 66.8073 13.4957 65.8842 16.5385C65.722 17.0801 65.5185 17.7522 65.2738 18.5547C65.029 19.3573 64.8179 20.0454 64.6403 20.6191C64.4627 21.1927 64.2669 21.8488 64.0529 22.5872C63.8388 23.3256 63.6367 24.0074 63.4465 24.6327C62.545 27.9717 62.0533 31.1929 61.9713 34.2963C61.9339 34.8801 61.9931 35.7294 62.1488 36.8444C62.2335 37.4508 62.5003 37.9417 62.9492 38.317C63.7657 38.2016 64.5743 37.8878 65.375 37.3756C66.1951 36.8606 66.9537 36.2597 67.6507 35.5727C68.3477 34.8857 69.1304 34.0319 69.9989 33.0115C70.6976 32.1946 71.4507 31.2353 72.2583 30.1337C73.0659 29.0322 73.6668 28.1892 74.061 27.6048C74.4551 27.0205 75.1355 26.0017 76.1021 24.5485C76.3807 24.1301 76.8276 23.5682 77.4427 22.8629C77.8379 22.428 78.2548 22.2195 78.6934 22.2372C79.0086 22.7911 79.0516 23.4532 78.8222 24.2237C78.3944 25.5608 77.6653 26.9405 76.6349 28.3629C76.4678 28.586 76.2645 28.8691 76.025 29.2121C75.7854 29.5552 75.578 29.8438 75.4025 30.0781C75.2271 30.3123 75.0231 30.5905 74.7906 30.9126C74.558 31.2348 74.3457 31.5241 74.1535 31.7807C73.9614 32.0372 73.7526 32.3161 73.527 32.6173C73.3015 32.9185 73.0878 33.198 72.8859 33.456C72.684 33.7139 72.469 33.9837 72.2407 34.2653C72.0124 34.5469 71.7876 34.8181 71.5663 35.0788C71.345 35.3395 71.1147 35.6064 70.8753 35.8796C69.4029 37.544 67.6438 38.9298 65.598 40.0369C64.2554 40.7853 63.091 40.6807 62.1048 39.723C62.0605 39.6894 61.8221 39.5087 61.3898 39.1809C60.9574 38.853 60.6638 38.5604 60.5089 38.3031C60.4758 38.208 60.4019 38.0689 60.2871 37.8856C60.1723 37.7024 60.0796 37.536 60.0092 37.3864C59.9387 37.2367 59.8842 37.0949 59.8457 36.9607C59.5135 35.2922 59.4248 34.0181 59.5794 33.1385C59.6496 32.7895 59.6973 32.2791 59.7224 31.6073C59.7475 30.9355 59.7798 30.4572 59.8193 30.1724C60.1865 27.4076 60.7533 24.7244 61.5199 22.1226C62.2558 19.5849 63.1799 16.6916 64.2921 13.4424C64.8007 11.9742 65.6924 9.91325 66.9671 7.25953C67.9155 5.25036 68.898 3.55555 69.9144 2.17508C70.4102 1.46666 71.157 0.852394 72.1548 0.332287C72.9136 -0.0542763 73.803 0.139111 74.8229 0.912452C76.5717 2.22102 77.3479 3.94639 77.1516 6.08857C77.0978 6.55496 77.0231 7.04925 76.9275 7.57141C76.8319 8.09358 76.7112 8.68414 76.5654 9.34307C76.4195 10.002 76.3198 10.4948 76.2664 10.8216C76.1962 11.1706 76.0853 11.7248 75.9336 12.4843C75.9142 12.4871 75.8802 12.4919 75.8316 12.4988C75.783 12.5056 75.7434 12.5062 75.7129 12.5006C75.6824 12.4949 75.6477 12.4949 75.6088 12.5004C75.5699 12.5059 75.54 12.5051 75.5192 12.4981C75.4984 12.491 75.477 12.4791 75.4548 12.4623C75.1502 12.1264 74.9842 11.8606 74.9569 11.665C74.8473 11.0222 74.825 10.4369 74.89 9.90912ZM88.4189 23.3154C88.2918 24.2509 88.2227 24.7494 88.2115 24.8108C88.0136 26.3748 88.1827 27.7272 88.7187 28.8682C88.7296 28.9464 88.7385 29.01 88.7453 29.0589C88.7521 29.1078 88.7436 29.1888 88.7198 29.3019C88.6959 29.415 88.6784 29.5022 88.6671 29.5636C87.9785 29.6012 87.5155 29.3375 87.278 28.7727C87.22 28.6413 86.8971 27.8192 86.3091 26.3066C86.1506 26.4487 85.9509 26.6515 85.7102 26.9149C85.4694 27.1784 85.2711 27.3909 85.1153 27.5526C84.9595 27.7142 84.7516 27.8933 84.4915 28.0896C84.2315 28.286 83.9848 28.4355 83.7514 28.5384C83.5179 28.6412 83.2408 28.7153 82.9201 28.7606C82.5993 28.806 82.2669 28.8032 81.9227 28.7521C81.1534 27.6441 80.7425 27.0439 80.69 26.9516C80.228 26.1991 80.2981 25.2816 80.9002 24.1991C81.2821 23.5267 81.828 22.7514 82.5379 21.8731C83.1336 21.1705 83.7607 20.6928 84.4193 20.4401C84.7944 20.2873 85.1546 20.2763 85.5 20.407C85.8453 20.5376 86.1301 20.7667 86.3542 21.094C86.3569 21.1136 86.4897 21.3541 86.7524 21.8156C86.8523 21.8215 87.0181 21.8379 87.2499 21.865C87.4816 21.892 87.6669 21.9057 87.8057 21.9061C87.8914 22.0934 88.0088 22.3661 88.1579 22.724C88.307 23.0819 88.394 23.279 88.4189 23.3154ZM85.7326 23.4559C85.9665 23.1436 85.9785 22.7329 85.7687 22.224C85.3519 22.3628 84.8417 22.7192 84.2379 23.2933C83.6342 23.8673 83.1734 24.4362 82.8557 24.9997C82.4905 25.6498 82.3477 26.1886 82.4273 26.6162C82.6411 26.586 82.7577 26.5695 82.7772 26.5667C84.0399 25.5304 85.0251 24.4935 85.7326 23.4559ZM102.621 17.0582C102.621 17.0582 102.768 17.1172 103.062 17.2352C103.061 17.6543 102.877 17.9695 102.51 18.181C101.757 18.6067 101.334 18.8459 101.243 18.8988C99.4474 19.6713 97.3777 20.8915 95.0336 22.5595C95.0169 22.5818 94.8429 22.756 94.5118 23.0821C95.6159 23.4645 96.5959 24.0939 97.4518 24.9702C98.2357 25.757 98.6358 26.8474 98.6521 28.2414C98.6622 29.8756 98.2876 31.664 97.5281 33.6066C96.6094 35.9706 95.5282 37.7392 94.2846 38.9124C94.215 38.9821 93.7729 39.294 92.9582 39.848C92.6329 40.0735 92.2678 40.0853 91.8629 39.8832C91.0061 39.4259 90.4392 39.0573 90.1622 38.7773C90.0707 38.6905 89.9953 38.5765 89.936 38.4353C89.8766 38.2941 89.8139 38.0935 89.7479 37.8335C89.6818 37.5736 89.6363 37.4254 89.6114 37.389C89.5701 37.2353 89.5582 37.0076 89.5755 36.706C89.5789 36.4462 89.5848 35.9915 89.5932 35.3421C89.6016 34.6926 89.6174 34.1318 89.6407 33.6598C89.6639 33.1877 89.6955 32.7394 89.7353 32.3149C89.9594 30.2287 90.2812 27.8493 90.7009 25.1769C90.8218 24.4816 91.1886 22.4948 91.8013 19.2166C91.8265 19.1133 91.8594 18.994 91.8999 18.8586C91.9405 18.7232 91.981 18.5878 92.0216 18.4524C92.0622 18.317 92.0951 18.1977 92.1203 18.0944C92.1315 18.0329 92.2257 17.501 92.4029 16.4985C92.58 15.4961 92.7428 14.745 92.891 14.2453C92.9415 14.0387 93.0238 13.5283 93.1381 12.7143C93.2524 11.9003 93.4099 11.2895 93.6107 10.8821C93.5834 10.6865 93.5832 10.4721 93.6101 10.2389C93.637 10.0057 93.6645 9.81234 93.6926 9.65876C93.7207 9.50518 93.7656 9.29438 93.8273 9.02634C93.889 8.7583 93.9311 8.56285 93.9536 8.43999C94.2538 7.04112 94.5754 6.00826 94.9183 5.34139C95.0411 5.08467 95.2372 4.89236 95.5068 4.76448C95.7764 4.63659 96.0347 4.60506 96.2816 4.66987C96.548 4.73194 96.8064 4.91481 97.057 5.21848C97.3076 5.52214 97.4312 5.80387 97.4278 6.06366C97.4278 6.06366 97.3818 6.15994 97.2897 6.35248C97.0732 6.36316 96.8552 6.36406 96.6359 6.35517C96.5551 6.48629 96.4889 6.61533 96.4372 6.74232C96.3856 6.86931 96.3353 7.00607 96.2864 7.15262C96.2375 7.29917 96.2011 7.42898 96.1772 7.54207C96.1534 7.65515 96.1246 7.80384 96.0909 7.98814C96.0572 8.17243 96.036 8.30507 96.0275 8.38606C95.8677 9.08687 95.6936 9.96922 95.5052 11.0331C95.4796 11.2761 95.4316 11.6419 95.3611 12.1306C95.2906 12.6194 95.2412 12.9754 95.2129 13.1988C95.1905 13.3217 95.168 13.4446 95.1455 13.5674C95.123 13.6903 95.0998 13.8083 95.076 13.9213C95.0521 14.0344 95.0248 14.158 94.9939 14.292C94.9631 14.426 94.9406 14.5489 94.9265 14.6606C94.9123 14.7723 94.8892 14.8903 94.8569 15.0145C94.8247 15.1387 94.7974 15.2623 94.7749 15.3851C94.4321 17.189 94.1539 18.6745 93.9403 19.8417C93.9263 19.8836 93.8362 20.4449 93.67 21.5256C94.7933 20.7683 95.3827 20.3758 95.4383 20.3479C97.0817 19.198 98.9454 18.2064 101.029 17.3731C101.255 17.2814 101.785 17.1764 102.621 17.0582ZM95.8306 25.4987C95.1318 25.1786 94.1785 25.0242 92.9708 25.0354C92.9173 25.3621 92.8274 25.8536 92.7009 26.5098C92.5745 27.166 92.4719 27.744 92.393 28.2438C92.3142 28.7437 92.2465 29.217 92.1899 29.6639C92.0033 31.1664 91.8252 33.2262 91.6555 35.8433C91.6147 36.6869 91.7257 37.3394 91.9883 37.8009C92.3024 37.6368 92.4692 37.5534 92.4886 37.5507C93.2954 36.7983 93.9847 35.8431 94.5564 34.6851C95.223 33.3541 95.7171 32.1372 96.0389 31.0345C96.3075 30.1189 96.479 29.1471 96.5535 28.1193C96.6182 27.7311 96.6005 27.2848 96.5003 26.7803C96.4001 26.2759 96.1769 25.8487 95.8306 25.4987ZM112.552 17.479C112.722 18.4124 112.633 19.2628 112.284 20.0303C111.483 21.8191 110.511 23.2332 109.368 24.2725C108.683 24.9079 107.983 25.3561 107.266 25.617C106.549 25.878 105.846 25.9224 105.158 25.7505C104.47 25.5785 103.877 25.1986 103.378 24.6108C103.002 24.1854 102.725 23.8355 102.548 23.5614C102.163 22.9375 102.09 22.0602 102.329 20.9294C102.601 19.6143 103.188 18.494 104.09 17.5686C104.126 17.5436 104.175 17.4717 104.238 17.3532C104.301 17.2346 104.359 17.1516 104.411 17.1042C104.915 16.5942 105.241 16.2988 105.388 16.2181C106.375 15.6198 107.212 15.7907 107.898 16.7309C107.901 16.7504 107.927 16.7966 107.977 16.8693C108.027 16.9421 108.074 16.9953 108.118 17.0289C108.398 17.3284 108.588 17.6606 108.688 18.0254C108.789 18.3902 108.803 18.7422 108.732 19.0814C108.66 19.4207 108.541 19.7417 108.376 20.0444C108.21 20.3471 108.004 20.6155 107.76 20.8496C106.702 21.9367 105.532 22.4312 104.25 22.3333C104.25 22.3333 104.162 22.3457 103.987 22.3704C103.917 22.8591 103.941 23.2098 104.06 23.4224C104.179 23.6349 104.442 23.7822 104.85 23.8641C105.544 24.0054 106.171 23.9566 106.733 23.7176C107.611 23.3341 108.431 22.6795 109.194 21.7538C110.5 20.1728 111.283 18.6159 111.545 17.0828C111.542 17.0633 111.63 16.9112 111.808 16.6267C112.214 16.6891 112.461 16.9732 112.552 17.479ZM106.659 17.6541C105.736 18.2833 105.058 19.1771 104.625 20.3354C105.375 20.1695 105.943 19.8349 106.328 19.3315C106.714 18.8282 106.824 18.269 106.659 17.6541Z" fill="white"/>
</svg>
