<svg width="128" height="64" viewBox="0 0 128 64" fill="none" xmlns="http://www.w3.org/2000/svg">
<path d="M30.1095 20.4229C30.1395 20.6381 30.1984 21.0237 30.2859 21.5798C30.3735 22.1359 30.4378 22.5607 30.4788 22.8541C30.5198 23.1475 30.5474 23.5226 30.5616 23.9794C30.5759 24.4362 30.552 24.8684 30.49 25.2761C30.4842 25.3767 30.4113 25.9904 30.2714 27.1173C30.1314 28.2441 29.9914 29.0867 29.8513 29.6451C29.0252 32.8139 27.5768 36.1404 25.5062 39.6248C23.706 42.6321 21.8623 45.1867 19.9753 47.2887C18.6393 48.7942 17.3178 50.0483 16.0107 51.0509C14.9928 51.8531 14.0725 52.4321 13.25 52.7878C12.6525 53.0518 11.9774 53.257 11.2247 53.4033C10.3165 53.5716 9.48153 53.2708 8.7198 52.5009C8.62565 52.3945 8.49338 52.2636 8.323 52.1082C8.15261 51.9527 7.99817 51.805 7.85967 51.665C7.72117 51.525 7.60348 51.3921 7.5066 51.2662C7.13851 50.7597 6.90223 50.2745 6.79779 49.8105C6.63292 49.0559 6.56603 47.9383 6.59714 46.4578C6.62604 45.9551 6.67862 45.4091 6.75491 44.8198C6.8312 44.2305 6.91841 43.7195 7.01656 43.2868C7.1147 42.854 7.2367 42.3081 7.38256 41.6492C7.5284 40.9903 7.63506 40.4765 7.70252 40.1079C7.71376 40.0465 7.88861 39.4533 8.22708 38.3282C8.08858 38.1882 7.90788 37.9944 7.68495 37.7466C7.46202 37.4989 7.26399 37.2876 7.09088 37.1126C6.91775 36.9376 6.75223 36.7815 6.59429 36.6442C6.25625 36.3529 6.02665 35.9864 5.90549 35.5448C5.78434 35.1031 5.74504 34.6798 5.78759 34.2749C5.76973 33.5792 5.84565 32.8454 6.01536 32.0734C6.18506 31.3014 6.37533 30.6411 6.58618 30.0927C6.79701 29.5443 7.07409 28.8668 7.41738 28.0602C8.54751 25.5067 10.037 23.0421 11.8858 20.6662C13.3114 18.809 14.8404 17.2663 16.4728 16.0381C17.7826 15.0549 19.1611 14.4212 20.6081 14.1368C22.9968 13.6394 25.1181 14.1373 26.9721 15.6305C28.0196 16.4597 28.861 17.5874 29.4963 19.0136C29.5294 19.1086 29.5874 19.2401 29.6703 19.4079C29.7533 19.5757 29.8113 19.7071 29.8444 19.8022C30.0074 20.1182 30.0958 20.3251 30.1095 20.4229ZM28.536 23.847C28.539 23.7269 28.5403 23.4524 28.5399 23.0236C28.5395 22.5948 28.5312 22.2868 28.5149 22.0996C28.4987 21.9124 28.4722 21.6518 28.4355 21.3179C28.3988 20.984 28.3418 20.6829 28.2647 20.4145C28.1876 20.1462 28.091 19.8806 27.975 19.6177C27.9252 19.545 27.8975 19.489 27.8921 19.4499C27.7694 18.43 27.1467 17.5905 26.0238 16.9315C24.0608 15.7928 21.9969 15.7057 19.832 16.6701C18.4508 17.2843 16.956 18.4332 15.3476 20.1168C13.8281 21.728 12.4037 23.6648 11.0743 25.9273C9.32968 28.9068 8.1977 31.6601 7.6784 34.187C7.56323 34.7818 7.68954 35.4022 8.05733 36.0483C8.23985 36.3616 8.50196 36.4642 8.84369 36.356C9.10072 35.6415 9.23622 35.2633 9.25019 35.2214C9.32553 35.0512 9.52437 34.5942 9.8467 33.8504C10.169 33.1067 10.4112 32.5339 10.5731 32.132C11.2825 30.2564 12.3655 28.288 13.8221 26.2269C14.2204 25.6719 14.7445 25.3086 15.3945 25.1369C15.486 25.2237 15.5933 25.3182 15.7166 25.4205C15.8399 25.5227 15.9743 25.6334 16.1198 25.7524C16.2653 25.8715 16.3935 25.973 16.5043 26.0571C16.4873 26.2191 16.4723 26.4306 16.4592 26.6918C16.4461 26.953 16.438 27.1436 16.435 27.2637C16.3351 27.2579 16.2143 27.2451 16.0728 27.2252C15.9312 27.2053 15.8216 27.2009 15.7438 27.2119C14.6991 28.8157 13.6858 30.6446 12.704 32.6984C11.7221 34.7521 11.2652 36.0934 11.3331 36.7221C11.9054 36.5614 12.211 36.4783 12.2499 36.4728C13.7191 36.2051 15.2486 35.6597 16.8385 34.8365C17.3193 34.5889 18.6064 33.8684 20.6996 32.6747C21.5252 32.1989 22.2502 31.9967 22.8747 32.0679C23.0095 32.6074 22.9044 33.0611 22.5593 33.429C21.7716 34.3184 21.179 34.9009 20.7814 35.1765C19.3716 36.1538 17.6441 37.0564 15.599 37.8842C14.1735 38.4647 12.4515 38.7681 10.4331 38.7942C10.3019 39.1319 10.2376 39.3106 10.2404 39.3301C9.62785 41.3317 9.15809 43.4327 8.83108 45.6333C8.61682 47.0798 8.57527 48.2726 8.70641 49.2115C8.78322 49.6195 8.968 50.1619 9.26076 50.8386C9.45694 51.2497 9.82157 51.4474 10.3546 51.4319C11.107 51.4252 11.9197 51.1408 12.7927 50.5785C15.0864 49.1171 17.1297 47.2822 18.9226 45.0739C21.0216 42.5031 22.736 40.0166 24.0657 37.6144C25.6964 34.6709 26.8433 32.0951 27.5062 29.887C27.5567 29.6804 27.624 29.3816 27.7081 28.9907C27.7923 28.5998 27.854 28.3318 27.8932 28.1866C28.3553 26.3859 28.5696 24.9393 28.536 23.847ZM41.2236 33.5722C41.5808 34.0005 41.7043 34.6014 41.5943 35.3749C41.2959 37.2124 40.4482 38.8782 39.0511 40.3723C39.0177 40.4169 38.7074 40.75 38.1202 41.3716C37.9258 41.3991 37.7315 41.3917 37.5373 41.3494C37.343 41.307 37.1925 41.2585 37.0858 41.2038C36.979 41.149 36.8106 41.0432 36.5805 40.8862C36.3504 40.7293 36.2035 40.6354 36.1397 40.6045C36.1574 40.1631 36.4081 39.7587 36.892 39.391C38.1408 38.3966 39.0077 36.8677 39.4926 34.8044C39.1172 35.0969 38.9197 35.2445 38.9003 35.2472C37.848 36.5131 36.8587 38.159 35.9324 40.185C34.8974 42.4258 34.0596 45.2272 33.419 48.5891C33.2112 49.6558 32.9093 51.1845 32.5134 53.1754C32.1174 55.1663 31.8661 56.4186 31.7595 56.9324C31.7285 57.1362 31.675 57.4629 31.599 57.9125C31.523 58.3621 31.4612 58.7 31.4135 58.9261C31.3096 59.4595 31.0714 59.8123 30.699 59.9846C30.1969 59.7963 29.6421 59.5855 29.0347 59.3523C28.9473 58.7263 28.9708 58.1146 29.1055 57.5171C29.1504 57.2714 29.204 56.9098 29.2661 56.4322C29.3283 55.9547 29.386 55.6224 29.4391 55.4353C29.4814 55.17 29.6682 54.2011 29.9996 52.5285C30.3309 50.856 30.5642 49.5813 30.6995 48.7044C31.0793 46.4565 31.3506 44.3536 31.5132 42.3957C31.5786 41.7282 31.6903 39.618 31.8482 36.065C31.8734 35.9617 31.8711 35.7675 31.8412 35.4825C31.8113 35.1975 31.8062 34.9838 31.826 34.8414C31.8457 34.699 31.9724 33.9031 32.2061 32.4538C32.2617 32.426 32.3215 32.3926 32.3854 32.3536C32.4494 32.3147 32.505 32.2869 32.5522 32.2702C32.5994 32.2536 32.6418 32.2376 32.6793 32.2223C32.7168 32.207 32.7537 32.1869 32.7898 32.1618C33.0313 32.1875 33.2677 32.3186 33.4989 32.5552C33.7302 32.7918 33.8539 33.0386 33.87 33.2957C33.9246 33.6869 33.939 34.0738 33.9132 34.4565C33.9153 34.7554 33.894 35.277 33.8493 36.0214C33.8045 36.7657 33.7804 37.3377 33.7767 37.7371C33.7821 37.7762 33.8368 38.1675 33.9406 38.9108C34.1858 38.537 34.307 38.3403 34.3042 38.3208C34.6806 37.6093 34.9796 37.0534 35.2012 36.653C35.4229 36.2526 35.7266 35.7659 36.1124 35.1927C36.4982 34.6195 36.8803 34.1266 37.2588 33.714C37.6373 33.3015 38.0699 32.9211 38.5565 32.5731C38.9347 32.3002 39.264 32.1738 39.5443 32.194C39.8247 32.2142 40.1158 32.3825 40.4177 32.6988C40.6698 32.9424 40.9384 33.2336 41.2236 33.5722ZM53.6047 31.5222C53.7747 32.4556 53.6853 33.306 53.3365 34.0734C52.5357 35.8622 51.5636 37.2763 50.4203 38.3157C49.7359 38.9511 49.0352 39.3992 48.3184 39.6602C47.6015 39.9211 46.8991 39.9656 46.2109 39.7936C45.5228 39.6216 44.9296 39.2418 44.4312 38.654C44.0546 38.2285 43.7777 37.8787 43.6007 37.6045C43.2162 36.9807 43.1432 36.1034 43.3817 34.9725C43.654 33.6574 44.2409 32.5372 45.1425 31.6118C45.1787 31.5867 45.2281 31.5149 45.2908 31.3963C45.3536 31.2777 45.4114 31.1948 45.4642 31.1474C45.9679 30.6373 46.2933 30.342 46.4407 30.2613C47.4276 29.6629 48.2642 29.8338 48.9506 30.774C48.9533 30.7936 48.9796 30.8398 49.0294 30.9125C49.0792 30.9852 49.1263 31.0384 49.1706 31.0721C49.4504 31.3716 49.6405 31.7038 49.741 32.0685C49.8415 32.4333 49.856 32.7853 49.7844 33.1246C49.7129 33.4638 49.5941 33.7848 49.4283 34.0875C49.2624 34.3903 49.0571 34.6587 48.8122 34.8928C47.7548 35.9798 46.5849 36.4744 45.3025 36.3765C45.3025 36.3765 45.215 36.3888 45.04 36.4136C44.9695 36.9023 44.9937 37.2529 45.1126 37.4655C45.2315 37.6781 45.4949 37.8254 45.9029 37.9073C46.5966 38.0486 47.2241 37.9997 47.7855 37.7608C48.6636 37.3773 49.4841 36.7227 50.2469 35.7969C51.5525 34.216 52.3361 32.659 52.5978 31.126C52.595 31.1064 52.6828 30.9544 52.8612 30.6698C53.2664 30.7322 53.5142 31.0163 53.6047 31.5222ZM47.7117 31.6973C46.7886 32.3265 46.1106 33.2203 45.6776 34.3786C46.4276 34.2127 46.9954 33.8781 47.381 33.3747C47.7667 32.8714 47.8769 32.3122 47.7117 31.6973ZM63.056 30.425C63.624 30.9431 63.7977 31.477 63.5771 32.0268C63.4152 32.4287 63.2396 32.7328 63.0504 32.9391C62.4659 33.5803 61.773 34.2966 60.9717 35.0882C60.468 35.5982 59.7193 35.8437 58.7254 35.8247C58.5924 35.7238 58.4622 35.6076 58.3348 35.476C58.2074 35.3444 58.0973 35.1954 58.0047 35.029C57.9121 34.8626 57.8381 34.7234 57.7829 34.6116C57.7276 34.4997 57.6634 34.3243 57.5904 34.0852C57.5174 33.8462 57.4692 33.6785 57.4458 33.5821C57.4224 33.4856 57.3763 33.2977 57.3076 33.0182C57.2388 32.7387 57.1989 32.5598 57.188 32.4815C56.8207 32.8327 56.3599 33.4364 55.8055 34.2928C54.9725 35.5675 54.4822 36.315 54.3346 36.5354C53.9391 37.11 53.5483 37.4345 53.1622 37.509C52.9569 37.4583 52.7684 37.3503 52.5966 37.1851C52.4248 37.0199 52.258 36.8191 52.0962 36.5827C51.9343 36.3462 51.7965 36.1762 51.683 36.0726C51.7279 35.8269 51.7814 35.5002 51.8434 35.0924C51.9054 34.6847 51.961 34.3378 52.0103 34.0515C52.0595 33.7653 52.1185 33.4428 52.1873 33.084C52.2562 32.7252 52.3187 32.3922 52.3749 32.085C52.4253 31.8784 52.4639 31.7284 52.4904 31.6348C52.517 31.5413 52.5687 31.4143 52.6454 31.2539C52.7221 31.0934 52.8244 30.9742 52.9523 30.8963C53.0802 30.8184 53.251 30.7643 53.4649 30.7341C53.9025 31.1709 54.1496 31.8042 54.206 32.634C55.3895 31.0304 56.0578 30.138 56.2109 29.9568C56.4475 29.664 56.7979 29.405 57.2621 29.1798C57.7624 28.9295 58.1758 29.0506 58.5022 29.543C59.1054 30.455 59.3406 31.4291 59.2077 32.4652C59.1938 32.5071 59.1943 32.866 59.2095 33.5421C59.8319 33.3145 60.5424 32.7951 61.341 31.984C62.1396 31.1729 62.7113 30.6532 63.056 30.425ZM79.89 14.9091C80.0514 13.5099 80.0561 12.0531 79.904 10.5387C79.7899 9.43779 79.7027 8.74201 79.6422 8.45134C79.6286 8.35354 79.5893 8.24939 79.5243 8.1389C79.4593 8.02841 79.3832 7.90951 79.296 7.7822C79.2089 7.6549 79.1515 7.56328 79.1238 7.50735C78.3049 7.46358 77.6198 7.8098 77.0685 8.54603C76.1049 9.87913 75.4516 10.8791 75.1086 11.546C73.2154 15.1648 71.8073 18.4957 70.8842 21.5385C70.722 22.0801 70.5185 22.7522 70.2738 23.5547C70.029 24.3573 69.8179 25.0454 69.6403 25.6191C69.4627 26.1927 69.2669 26.8488 69.0529 27.5872C68.8388 28.3256 68.6367 29.0074 68.4465 29.6327C67.545 32.9717 67.0533 36.1929 66.9713 39.2963C66.9339 39.8801 66.9931 40.7294 67.1488 41.8444C67.2335 42.4508 67.5003 42.9417 67.9492 43.317C68.7657 43.2016 69.5743 42.8878 70.375 42.3756C71.1951 41.8606 71.9537 41.2597 72.6507 40.5727C73.3477 39.8857 74.1304 39.0319 74.9989 38.0115C75.6976 37.1946 76.4507 36.2353 77.2583 35.1337C78.0659 34.0322 78.6668 33.1892 79.061 32.6048C79.4551 32.0205 80.1355 31.0017 81.1021 29.5485C81.3807 29.1301 81.8276 28.5682 82.4427 27.8629C82.8379 27.428 83.2548 27.2195 83.6934 27.2372C84.0086 27.7911 84.0516 28.4532 83.8222 29.2237C83.3944 30.5608 82.6653 31.9405 81.6349 33.3629C81.4678 33.586 81.2645 33.8691 81.025 34.2121C80.7854 34.5552 80.578 34.8438 80.4025 35.0781C80.2271 35.3123 80.0231 35.5905 79.7906 35.9126C79.558 36.2348 79.3457 36.5241 79.1535 36.7807C78.9614 37.0372 78.7526 37.3161 78.527 37.6173C78.3015 37.9185 78.0878 38.198 77.8859 38.456C77.684 38.7139 77.469 38.9837 77.2407 39.2653C77.0124 39.5469 76.7876 39.8181 76.5663 40.0788C76.345 40.3395 76.1147 40.6064 75.8753 40.8796C74.4029 42.544 72.6438 43.9298 70.598 45.0369C69.2554 45.7853 68.091 45.6807 67.1048 44.723C67.0605 44.6894 66.8221 44.5087 66.3898 44.1809C65.9574 43.853 65.6638 43.5604 65.5089 43.3031C65.4758 43.208 65.4019 43.0689 65.2871 42.8856C65.1723 42.7024 65.0796 42.536 65.0092 42.3864C64.9387 42.2367 64.8842 42.0949 64.8457 41.9607C64.5135 40.2922 64.4248 39.0181 64.5794 38.1385C64.6496 37.7895 64.6973 37.2791 64.7224 36.6073C64.7475 35.9355 64.7798 35.4572 64.8193 35.1724C65.1865 32.4076 65.7533 29.7244 66.5199 27.1226C67.2558 24.5849 68.1799 21.6916 69.2921 18.4424C69.8007 16.9742 70.6924 14.9132 71.9671 12.2595C72.9155 10.2504 73.898 8.55555 74.9144 7.17508C75.4102 6.46666 76.157 5.85239 77.1548 5.33229C77.9136 4.94572 78.803 5.13911 79.8229 5.91245C81.5717 7.22102 82.3479 8.94639 82.1516 11.0886C82.0978 11.555 82.0231 12.0492 81.9275 12.5714C81.8319 13.0936 81.7112 13.6841 81.5654 14.3431C81.4195 15.002 81.3198 15.4948 81.2664 15.8216C81.1962 16.1706 81.0853 16.7248 80.9336 17.4843C80.9142 17.4871 80.8802 17.4919 80.8316 17.4988C80.783 17.5056 80.7434 17.5062 80.7129 17.5006C80.6824 17.4949 80.6477 17.4949 80.6088 17.5004C80.5699 17.5059 80.54 17.5051 80.5192 17.4981C80.4984 17.491 80.477 17.4791 80.4548 17.4623C80.1502 17.1264 79.9842 16.8606 79.9569 16.665C79.8473 16.0222 79.825 15.4369 79.89 14.9091ZM93.4189 28.3154C93.2918 29.2509 93.2227 29.7494 93.2115 29.8108C93.0136 31.3748 93.1827 32.7272 93.7187 33.8682C93.7296 33.9464 93.7385 34.01 93.7453 34.0589C93.7521 34.1078 93.7436 34.1888 93.7198 34.3019C93.6959 34.415 93.6784 34.5022 93.6671 34.5636C92.9785 34.6012 92.5155 34.3375 92.278 33.7727C92.22 33.6413 91.8971 32.8192 91.3091 31.3066C91.1506 31.4487 90.9509 31.6515 90.7102 31.9149C90.4694 32.1784 90.2711 32.3909 90.1153 32.5526C89.9595 32.7142 89.7516 32.8933 89.4915 33.0896C89.2315 33.286 88.9848 33.4355 88.7514 33.5384C88.5179 33.6412 88.2408 33.7153 87.9201 33.7606C87.5993 33.806 87.2669 33.8032 86.9227 33.7521C86.1534 32.6441 85.7425 32.0439 85.69 31.9516C85.228 31.1991 85.2981 30.2816 85.9002 29.1991C86.2821 28.5267 86.828 27.7514 87.5379 26.8731C88.1336 26.1705 88.7607 25.6928 89.4193 25.4401C89.7944 25.2873 90.1546 25.2763 90.5 25.407C90.8453 25.5376 91.1301 25.7667 91.3542 26.094C91.3569 26.1136 91.4897 26.3541 91.7524 26.8156C91.8523 26.8215 92.0181 26.8379 92.2499 26.865C92.4816 26.892 92.6669 26.9057 92.8057 26.9061C92.8914 27.0934 93.0088 27.3661 93.1579 27.724C93.307 28.0819 93.394 28.279 93.4189 28.3154ZM90.7326 28.4559C90.9665 28.1436 90.9785 27.7329 90.7687 27.224C90.3519 27.3628 89.8417 27.7192 89.2379 28.2933C88.6342 28.8673 88.1734 29.4362 87.8557 29.9997C87.4905 30.6498 87.3477 31.1886 87.4273 31.6162C87.6411 31.586 87.7577 31.5695 87.7772 31.5667C89.0399 30.5304 90.0251 29.4935 90.7326 28.4559ZM107.621 22.0582C107.621 22.0582 107.768 22.1172 108.062 22.2352C108.061 22.6543 107.877 22.9695 107.51 23.181C106.757 23.6067 106.334 23.8459 106.243 23.8988C104.447 24.6713 102.378 25.8915 100.034 27.5595C100.017 27.5818 99.8429 27.756 99.5118 28.0821C100.616 28.4645 101.596 29.0939 102.452 29.9702C103.236 30.757 103.636 31.8474 103.652 33.2414C103.662 34.8756 103.288 36.664 102.528 38.6066C101.609 40.9706 100.528 42.7392 99.2846 43.9124C99.215 43.9821 98.7729 44.294 97.9582 44.848C97.6329 45.0735 97.2678 45.0853 96.8629 44.8832C96.0061 44.4259 95.4392 44.0573 95.1622 43.7773C95.0707 43.6905 94.9953 43.5765 94.936 43.4353C94.8766 43.2941 94.8139 43.0935 94.7479 42.8335C94.6818 42.5736 94.6363 42.4254 94.6114 42.389C94.5701 42.2353 94.5582 42.0076 94.5755 41.706C94.5789 41.4462 94.5848 40.9915 94.5932 40.3421C94.6016 39.6926 94.6174 39.1318 94.6407 38.6598C94.6639 38.1877 94.6955 37.7394 94.7353 37.3149C94.9594 35.2287 95.2812 32.8493 95.7009 30.1769C95.8218 29.4816 96.1886 27.4948 96.8013 24.2166C96.8265 24.1133 96.8594 23.994 96.8999 23.8586C96.9405 23.7232 96.981 23.5878 97.0216 23.4524C97.0622 23.317 97.0951 23.1977 97.1203 23.0944C97.1315 23.0329 97.2257 22.501 97.4029 21.4985C97.58 20.4961 97.7428 19.745 97.891 19.2453C97.9415 19.0387 98.0238 18.5283 98.1381 17.7143C98.2524 16.9003 98.4099 16.2895 98.6107 15.8821C98.5834 15.6865 98.5832 15.4721 98.6101 15.2389C98.637 15.0057 98.6645 14.8123 98.6926 14.6588C98.7207 14.5052 98.7656 14.2944 98.8273 14.0263C98.889 13.7583 98.9311 13.5629 98.9536 13.44C99.2538 12.0411 99.5754 11.0083 99.9183 10.3414C100.041 10.0847 100.237 9.89236 100.507 9.76448C100.776 9.63659 101.035 9.60506 101.282 9.66987C101.548 9.73194 101.806 9.91481 102.057 10.2185C102.308 10.5221 102.431 10.8039 102.428 11.0637C102.428 11.0637 102.382 11.1599 102.29 11.3525C102.073 11.3632 101.855 11.3641 101.636 11.3552C101.555 11.4863 101.489 11.6153 101.437 11.7423C101.386 11.8693 101.335 12.0061 101.286 12.1526C101.237 12.2992 101.201 12.429 101.177 12.5421C101.153 12.6552 101.125 12.8038 101.091 12.9881C101.057 13.1724 101.036 13.3051 101.028 13.3861C100.868 14.0869 100.694 14.9692 100.505 16.0331C100.48 16.2761 100.432 16.6419 100.361 17.1306C100.291 17.6194 100.241 17.9754 100.213 18.1988C100.19 18.3217 100.168 18.4446 100.145 18.5674C100.123 18.6903 100.1 18.8083 100.076 18.9213C100.052 19.0344 100.025 19.158 99.9939 19.292C99.9631 19.426 99.9406 19.5489 99.9265 19.6606C99.9123 19.7723 99.8892 19.8903 99.8569 20.0145C99.8247 20.1387 99.7974 20.2623 99.7749 20.3851C99.4321 22.189 99.1539 23.6745 98.9403 24.8417C98.9263 24.8836 98.8362 25.4449 98.67 26.5256C99.7933 25.7683 100.383 25.3758 100.438 25.3479C102.082 24.198 103.945 23.2064 106.029 22.3731C106.255 22.2814 106.785 22.1764 107.621 22.0582ZM100.831 30.4987C100.132 30.1786 99.1785 30.0242 97.9708 30.0354C97.9173 30.3621 97.8274 30.8536 97.7009 31.5098C97.5745 32.166 97.4719 32.744 97.393 33.2438C97.3142 33.7437 97.2465 34.217 97.1899 34.6639C97.0033 36.1664 96.8252 38.2262 96.6555 40.8433C96.6147 41.6869 96.7257 42.3394 96.9883 42.8009C97.3024 42.6368 97.4692 42.5534 97.4886 42.5507C98.2954 41.7983 98.9847 40.8431 99.5564 39.6851C100.223 38.3541 100.717 37.1372 101.039 36.0345C101.307 35.1189 101.479 34.1471 101.553 33.1193C101.618 32.7311 101.6 32.2848 101.5 31.7803C101.4 31.2759 101.177 30.8487 100.831 30.4987ZM117.552 22.479C117.722 23.4124 117.633 24.2628 117.284 25.0303C116.483 26.8191 115.511 28.2332 114.368 29.2725C113.683 29.9079 112.983 30.3561 112.266 30.617C111.549 30.878 110.846 30.9224 110.158 30.7505C109.47 30.5785 108.877 30.1986 108.378 29.6108C108.002 29.1854 107.725 28.8355 107.548 28.5614C107.163 27.9375 107.09 27.0602 107.329 25.9294C107.601 24.6143 108.188 23.494 109.09 22.5686C109.126 22.5436 109.175 22.4717 109.238 22.3532C109.301 22.2346 109.359 22.1516 109.411 22.1042C109.915 21.5942 110.241 21.2988 110.388 21.2181C111.375 20.6198 112.212 20.7907 112.898 21.7309C112.901 21.7504 112.927 21.7966 112.977 21.8693C113.027 21.9421 113.074 21.9953 113.118 22.0289C113.398 22.3284 113.588 22.6606 113.688 23.0254C113.789 23.3902 113.803 23.7422 113.732 24.0814C113.66 24.4207 113.541 24.7417 113.376 25.0444C113.21 25.3471 113.004 25.6155 112.76 25.8496C111.702 26.9367 110.532 27.4312 109.25 27.3333C109.25 27.3333 109.162 27.3457 108.987 27.3704C108.917 27.8591 108.941 28.2098 109.06 28.4224C109.179 28.6349 109.442 28.7822 109.85 28.8641C110.544 29.0054 111.171 28.9566 111.733 28.7176C112.611 28.3341 113.431 27.6795 114.194 26.7538C115.5 25.1728 116.283 23.6159 116.545 22.0828C116.542 22.0633 116.63 21.9112 116.808 21.6267C117.214 21.6891 117.461 21.9732 117.552 22.479ZM111.659 22.6541C110.736 23.2833 110.058 24.1771 109.625 25.3354C110.375 25.1695 110.943 24.8349 111.328 24.3315C111.714 23.8282 111.824 23.269 111.659 22.6541Z" fill="white"/>
<path d="M55 59.2815H56.9997V58.5037H55V59.2815ZM62.5008 61.1185C62.9256 61.1185 63.3358 60.8815 63.6361 60.5852H63.6581L63.746 61.0148H64.6177V55.1037H63.5409V56.563L63.5849 57.2148C63.2919 56.9407 63.0062 56.763 62.5447 56.763C61.6584 56.763 60.8233 57.5926 60.8233 58.9481C60.8233 60.3037 61.4826 61.1185 62.5008 61.1185ZM62.7791 60.2222C62.2371 60.2222 61.9294 59.7926 61.9294 58.9333C61.9294 58.1037 62.3176 57.6593 62.7791 57.6593C63.0355 57.6593 63.2919 57.7407 63.5409 57.9704V59.7926C63.3065 60.1037 63.0648 60.2222 62.7791 60.2222ZM66.5075 61.0148H67.577V56.8667H66.5075V61.0148ZM67.0496 56.2C67.4158 56.2 67.6868 55.9481 67.6868 55.6074C67.6868 55.2519 67.4158 55.0148 67.0496 55.0148C66.676 55.0148 66.405 55.2519 66.405 55.6074C66.405 55.9481 66.676 56.2 67.0496 56.2ZM70.6388 61.1185C71.7082 61.1185 72.2723 60.5333 72.2723 59.8074C72.2723 59.037 71.6716 58.763 71.1296 58.5556C70.6974 58.3926 70.2945 58.2815 70.2945 57.9778C70.2945 57.7407 70.4703 57.5778 70.8366 57.5778C71.1442 57.5778 71.4299 57.7259 71.7229 57.9333L72.2063 57.2741C71.8621 57.0148 71.4079 56.763 70.8073 56.763C69.8843 56.763 69.2837 57.2889 69.2837 58.037C69.2837 58.7259 69.8843 59.0444 70.4044 59.2444C70.8366 59.4148 71.2614 59.5556 71.2614 59.8667C71.2614 60.1259 71.0783 60.3037 70.6681 60.3037C70.2872 60.3037 69.9356 60.1407 69.5694 59.8519L69.0786 60.5333C69.4814 60.8741 70.0894 61.1185 70.6388 61.1185ZM73.8252 61.0148H74.8946V58.163C75.2022 57.8593 75.4147 57.6963 75.7516 57.6963C76.1545 57.6963 76.3303 57.9259 76.3303 58.563V61.0148H77.4071V58.4296C77.4071 57.3852 77.0262 56.763 76.1398 56.763C75.5831 56.763 75.1803 57.0593 74.8506 57.3704L74.8946 56.5926V55.1037H73.8252V61.0148ZM82.3075 59.4963C82.3075 59.2 82.4906 58.9556 82.7543 58.7259C83.0986 59.1852 83.5161 59.6222 83.9776 60.0074C83.7212 60.1778 83.4502 60.2815 83.1865 60.2815C82.6664 60.2815 82.3075 59.963 82.3075 59.4963ZM82.8495 56.8222C82.8495 56.4148 83.0766 56.1556 83.3916 56.1556C83.6772 56.1556 83.8018 56.3556 83.8018 56.6296C83.8018 57.0296 83.4721 57.2963 83.0473 57.5556C82.9228 57.2963 82.8495 57.0519 82.8495 56.8222ZM86.3289 60.2296C86.0505 60.1778 85.7209 60.037 85.3693 59.837C85.7868 59.2667 86.0871 58.6296 86.2849 57.9556H85.3107C85.1642 58.4963 84.9298 58.963 84.6441 59.3481C84.212 59.0148 83.7944 58.6148 83.4721 58.2074C84.0508 57.8 84.6368 57.3481 84.6368 56.6222C84.6368 55.9037 84.146 55.4296 83.3769 55.4296C82.5052 55.4296 81.9559 56.0593 81.9559 56.8222C81.9559 57.1852 82.0804 57.5926 82.3001 58.0074C81.7581 58.3556 81.282 58.8 81.282 59.563C81.282 60.4148 81.9192 61.1185 83.0546 61.1185C83.7212 61.1185 84.2706 60.8963 84.7174 60.5407C85.1715 60.8296 85.6403 61.0222 86.0652 61.1185L86.3289 60.2296ZM91.9251 61.1185C92.3793 61.1185 92.8774 60.963 93.2656 60.6148L92.8408 59.8963C92.6137 60.0889 92.3353 60.2296 92.0423 60.2296C91.449 60.2296 91.0242 59.7259 91.0242 58.9481C91.0242 58.163 91.449 57.6519 92.0716 57.6519C92.306 57.6519 92.4965 57.7481 92.7016 57.9259L93.2143 57.2222C92.914 56.963 92.5258 56.763 92.0204 56.763C90.907 56.763 89.9254 57.563 89.9254 58.9481C89.9254 60.3185 90.7898 61.1185 91.9251 61.1185ZM96.2688 61.1185C97.2943 61.1185 98.2393 60.3185 98.2393 58.9481C98.2393 57.563 97.2943 56.763 96.2688 56.763C95.2434 56.763 94.2984 57.563 94.2984 58.9481C94.2984 60.3185 95.2434 61.1185 96.2688 61.1185ZM96.2688 60.2296C95.7122 60.2296 95.3972 59.7259 95.3972 58.9481C95.3972 58.163 95.7122 57.6519 96.2688 57.6519C96.8255 57.6519 97.1405 58.163 97.1405 58.9481C97.1405 59.7259 96.8255 60.2296 96.2688 60.2296ZM102.224 55.1481C102.041 55.0741 101.763 55 101.448 55C100.415 55 100.019 55.6667 100.019 56.5333V56.8741L99.4699 56.9185V57.7259H100.019V61.0148H101.096V57.7259H101.865V56.8667H101.096V56.5111C101.096 56.0519 101.272 55.8593 101.594 55.8593C101.726 55.8593 101.887 55.8963 102.026 55.9481L102.224 55.1481ZM105.681 55.1481C105.498 55.0741 105.22 55 104.905 55C103.872 55 103.477 55.6667 103.477 56.5333V56.8741L102.927 56.9185V57.7259H103.477V61.0148H104.553V57.7259H105.323V56.8667H104.553V56.5111C104.553 56.0519 104.729 55.8593 105.051 55.8593C105.183 55.8593 105.344 55.8963 105.484 55.9481L105.681 55.1481ZM108.443 61.1185C108.956 61.1185 109.476 60.9407 109.879 60.6593L109.512 59.9926C109.219 60.1778 108.926 60.2815 108.589 60.2815C107.981 60.2815 107.542 59.9259 107.454 59.2444H109.981C110.01 59.1481 110.032 58.9481 110.032 58.7481C110.032 57.6 109.446 56.763 108.318 56.763C107.337 56.763 106.407 57.6 106.407 58.9481C106.407 60.3111 107.3 61.1185 108.443 61.1185ZM107.439 58.5259C107.52 57.9185 107.901 57.6074 108.333 57.6074C108.86 57.6074 109.11 57.963 109.11 58.5259H107.439ZM113.431 61.1185C113.944 61.1185 114.464 60.9407 114.867 60.6593L114.501 59.9926C114.208 60.1778 113.915 60.2815 113.578 60.2815C112.97 60.2815 112.53 59.9259 112.442 59.2444H114.969C114.999 59.1481 115.021 58.9481 115.021 58.7481C115.021 57.6 114.435 56.763 113.307 56.763C112.325 56.763 111.395 57.6 111.395 58.9481C111.395 60.3111 112.289 61.1185 113.431 61.1185ZM112.428 58.5259C112.508 57.9185 112.889 57.6074 113.321 57.6074C113.849 57.6074 114.098 57.963 114.098 58.5259H112.428ZM118.815 59.2815H120.815V58.5037H118.815V59.2815Z" fill="white"/>
</svg>
