<svg width="60" height="60" viewBox="0 0 60 60" fill="none" xmlns="http://www.w3.org/2000/svg">
<circle cx="30" cy="30" r="30" fill="#382620"/>
<path d="M42.875 24.25H18.125C17.5062 24.25 17 23.7437 17 23.125C17 22.5063 17.5062 22 18.125 22H42.875C43.4937 22 44 22.5063 44 23.125C44 23.7437 43.4937 24.25 42.875 24.25Z" fill="white"/>
<path d="M42.875 31H18.125C17.5062 31 17 30.4937 17 29.875C17 29.2563 17.5062 28.75 18.125 28.75H42.875C43.4937 28.75 44 29.2563 44 29.875C44 30.4937 43.4937 31 42.875 31Z" fill="white"/>
<path d="M42.875 37.75H18.125C17.5062 37.75 17 37.2437 17 36.625C17 36.0063 17.5062 35.5 18.125 35.5H42.875C43.4937 35.5 44 36.0063 44 36.625C44 37.2437 43.4937 37.75 42.875 37.75Z" fill="white"/>
</svg>
